<?xml version="1.0" encoding="UTF-8"?>
<svg id="Layer_2" xmlns="http://www.w3.org/2000/svg" viewBox="0 0 122.78 120.98">
  <defs>
    <style>
      .cls-1 {
        fill: #faa62a;
        fill-rule: evenodd;
      }
    </style>
  </defs>
  <g id="Layer_1-2" data-name="Layer_1">
    <path class="cls-1" d="M76.88,37.4h11.59v45.07h-11.59v-45.07ZM4.75,90.42h88.6V5.59c0-3.07,2.09-5.59,4.74-5.59s4.88,2.51,4.88,5.59v84.83h14.93c2.65,0,4.89,2.37,4.89,5.44s-2.23,5.44-4.89,5.44h-14.93v14.23c0,2.93-2.23,5.44-4.88,5.44s-4.74-2.51-4.74-5.44v-14.23H4.75c-2.66,0-4.75-2.51-4.75-5.44s2.09-5.44,4.75-5.44h0ZM36.84,35.86c1.67-1.67,4.33-1.67,6,0l7.12,7.12c1.11,1.11,2.51,1.67,3.91,1.67s2.8-.56,3.76-1.67l22.6-22.46,3.63,3.63c.55.56,1.39.7,2.23.42.7-.28,1.11-.98,1.11-1.81l.28-12.7c0-.97-.41-1.81-.97-2.51-.7-.7-1.54-.97-2.51-.97h-12.98c-.84,0-1.54.42-1.81,1.11-.29.84-.14,1.68.42,2.23l3.07,3.07-15.77,15.91c-.84.84-1.95,1.25-3.07,1.25s-2.23-.42-3.07-1.25l-7.95-7.96c-1.67-1.67-4.33-1.67-6,0l-23.03,22.88c-.84.84-1.25,2.09-1.25,3.21,0,1.26.42,2.37,1.25,3.21l1.26,1.26c1.67,1.67,4.46,1.67,6.14,0l15.63-15.63ZM23.72,66.56h11.58v17.03h-11.58v-17.03ZM41.44,60.7h11.58v22.46h-11.58v-22.46ZM59.16,49.81h11.59v33.07h-11.59v-33.07Z"/>
  </g>
</svg>