<?xml version="1.0" encoding="UTF-8"?>
<svg id="Layer_2" xmlns="http://www.w3.org/2000/svg" viewBox="0 0 123.47 117.21">
  <defs>
    <style>
      .cls-1 {
        fill: #faa62a;
        fill-rule: evenodd;
      }
    </style>
  </defs>
  <g id="Layer_1-2" data-name="Layer_1">
    <path class="cls-1" d="M102.51,19.7c-2.67,0-4.78,1.83-5.49,4.22l-5.77.84c-.98-1.68-2.82-2.68-4.79-2.68-3.1,0-5.63,2.54-5.63,5.63,0,1.41.7,2.82,1.55,3.8l-5.2,11.68h0c-.98,0-1.83.28-2.67.71l-3.1-3.1c.14-.56.28-1.27.28-1.97,0-3.1-2.53-5.63-5.63-5.63s-5.49,2.53-5.49,5.63c0,.84.14,1.55.42,2.25l-7.03,7.31c-.56-.14-1.41-.42-2.11-.42-3.09,0-5.63,2.53-5.63,5.63s2.54,5.63,5.63,5.63,5.63-2.53,5.63-5.63c0-.84-.28-1.68-.57-2.39l6.9-7.31c.7.42,1.54.56,2.25.56.98,0,1.83-.28,2.67-.71l3.23,3.1c-.28.7-.42,1.27-.42,1.97,0,3.1,2.53,5.63,5.63,5.63s5.63-2.53,5.63-5.63c0-1.55-.7-3.09-1.83-4.07l5.06-11.54h.42c2.82,0,5.06-1.97,5.49-4.5l5.63-.7c.98,1.69,2.81,2.82,4.92,2.82,3.09,0,5.63-2.4,5.63-5.48s-2.54-5.63-5.63-5.63h0ZM21.76,26.17l-.7,1.69h-.15l2.11,18.71c-.7,1.68-1.12,2.53-1.97,4.08l-2.96-4.08,2.11-18.71h0l-.84-1.69c-5.77.28-12.1,2.81-12.38,2.96,0,.13-.14.13-.14.28-.28,0-.42.14-.7.28-.14.14-.29.28-.29.56-.14.14-.28.28-.42.56-.14.14-.14.42-.28.56,0,.14-.15.28-.15.42L.09,57.4c-.42,1.97.71,3.8,2.39,4.22.14.14.42.14.56.14,1.55,0,2.81-1.13,3.1-2.82l4.64-23.63c.28-.14.71-.28,1.13-.42v24.34l-2.54,35.32c-.14,2.38,1.41,4.5,3.38,4.64h.28c1.97,0,3.66-1.69,3.8-3.94l2.25-31.93c.42.28.98.42,1.55.42.42,0,.99-.14,1.41-.42l2.25,31.93c.14,2.25,1.83,3.94,3.8,3.94h.28c2.11-.14,3.66-2.26,3.38-4.64l-2.39-35.32v-24.34c.84.28,1.83.7,2.67.99.42.14.84.28,1.27.42v29.4c0,2.53,2.11,4.79,4.78,4.79h29.26l-12.38,41.78c-.42,1.4.42,2.67,1.83,2.95l2.25.42c1.41.28,2.95-.7,3.38-1.97l11.96-40.94v37.42c0,1.12,1.12,2.25,2.25,2.25h3.52c1.27,0,2.25-1.13,2.25-2.25v-36.86l11.54,41.78c.42,1.41,1.83,2.25,3.23,2.11l2.25-.42c1.41-.28,2.25-1.69,1.83-3.1l-11.82-43.19h29.27c2.68,0,4.78-2.25,4.78-4.79V12.52c0-2.67-2.11-4.78-4.78-4.78h-35.73c.42-.85.7-1.55.7-2.53,0-2.81-2.39-5.21-5.34-5.21s-5.2,2.39-5.2,5.21c0,.98.28,1.68.7,2.53h-35.73c-2.68,0-4.78,2.11-4.78,4.78v16.88c-5.07-1.69-10.13-3.23-11.54-3.23h0ZM42.44,39.82c.7.28,1.41.56,2.11.84.28.14.56.14.98.14,1.27,0,2.54-.98,2.96-2.4v-.84c25.18-13.22,26.17-15.33-.14-1.41-.28-.98-.85-1.97-1.83-2.25-.14,0-1.69-.56-4.08-1.4v-16.46h71.89v45.02H42.44v-21.24ZM20.63,23.77c3.38,0,6.05-4.5,6.05-8.3s-2.67-6.89-6.05-6.89-6.05,3.1-6.05,6.89,2.81,8.3,6.05,8.3h0Z"/>
  </g>
</svg>