<?xml version="1.0" encoding="UTF-8"?>
<svg id="Layer_2" xmlns="http://www.w3.org/2000/svg" viewBox="0 0 111.94 111.51">
  <defs>
    <style>
      .cls-1 {
        fill: #faa62a;
        fill-rule: evenodd;
      }
    </style>
  </defs>
  <g id="Layer_1-2" data-name="Layer_1">
    <path class="cls-1" d="M94.34,48.7c4.33,0,7.68-4.88,7.68-9.07s-3.35-7.82-7.68-7.82-7.67,3.49-7.67,7.82,3.49,9.07,7.67,9.07h0ZM4.33,111.09h15.21v-32.1H4.33v32.1ZM56.52,111.09h15.07v-57.64h-15.07v57.64ZM30.15,111.09h15.07v-44.1h-15.07v44.1ZM80.81,18.56l11.58,6.14L84.57,0l-21.63,9.91,11.16,5.17c-.28.42-.42.84-.56,1.12-.56.97-1.12,1.81-1.68,2.79-.28.42-.56.97-.84,1.39-.28.56-.56.98-.98,1.54-.28.56-.56.97-.98,1.53-.28.56-.69,1.12-.97,1.53-.84.98-1.68,2.1-2.51,3.22-.84.97-1.68,2.09-2.65,3.2-.98.98-1.96,1.96-2.93,3.07-1.12.97-2.1,2.09-3.21,3.06-.7.42-1.26.98-1.81,1.4-.56.56-1.12,1.12-1.81,1.53-1.12.84-2.38,1.82-3.63,2.65-.7.42-1.25.84-1.95,1.26l-1.95,1.25c-2.51,1.68-5.16,2.93-7.95,4.33-2.65,1.26-5.31,2.37-7.96,3.35-2.65.98-5.3,1.68-7.81,2.38-2.51.7-4.88,1.25-7.12,1.67-2.09.42-4.19.71-6,.98-1.81.13-3.35.28-4.61.41-2.65.14-4.19.14-4.19.14v.42s6,.7,15.07-.14c2.24-.28,4.61-.56,7.26-.98,2.51-.56,5.3-1.11,8.09-1.81,2.79-.7,5.58-1.67,8.38-2.65,2.93-1.12,5.86-2.24,8.65-3.63l2.09-1.12c.7-.42,1.39-.84,2.09-1.26,1.4-.7,2.79-1.54,4.05-2.37.7-.42,1.39-.98,1.95-1.4.7-.42,1.4-.98,1.96-1.39,1.25-.98,2.51-1.96,3.77-2.93,1.12-.98,2.24-2.1,3.35-3.07,1.12-1.12,2.09-2.09,3.21-3.21.97-1.12,1.81-2.1,2.79-3.21.42-.42.84-.98,1.25-1.53.42-.56.84-1.12,1.26-1.68.42-.41.84-.97,1.11-1.39.42-.56.7-1.12,1.12-1.53.7-1.12,1.26-1.96,1.82-2.93.56-.84,1.12-1.67,1.53-2.51h0ZM109.41,54.01c-.14-.14-.14-.42-.28-.56,0-.14-.14-.28-.28-.42-.14-.13-.28-.41-.42-.56-.14-.14-.28-.14-.42-.28-.14,0-.28-.14-.42-.28-.28,0-6.42-2.23-12-2.51l-.84,1.53h0l2.09,15.91-2.51,4.33-2.37-4.33,1.95-15.91h0l-.7-1.53c-5.58.28-11.72,2.51-12,2.51-.28.14-.42.28-.56.28-.14.14-.28.14-.42.28-.14.14-.28.42-.42.56-.14.14-.28.28-.28.42-.15.14-.15.41-.28.56,0,.14,0,.28-.14.42l-2.37,21.91c-.14,1.67.98,3.21,2.65,3.35h.42c1.53,0,2.79-1.12,2.93-2.65l2.24-19.96c.28,0,.56-.14.84-.28v20.79l-2.37,30.01c-.14,2.09,1.26,3.77,3.35,3.91h.28c1.96,0,3.49-1.4,3.63-3.35l2.23-27.07c.42.14.84.28,1.39.28s.98-.14,1.54-.28l2.09,27.07c.14,1.95,1.81,3.35,3.63,3.35h.28c2.09-.14,3.49-1.82,3.35-3.91l-2.37-30.01v-20.79c.28.14.56.28.84.28l2.24,19.96c.14,1.53,1.54,2.65,2.93,2.65h.42c1.68-.14,2.79-1.67,2.65-3.35l-2.37-21.91c0-.14-.14-.28-.14-.42h0Z"/>
  </g>
</svg>