<?xml version="1.0" encoding="UTF-8"?>
<svg id="Layer_2" xmlns="http://www.w3.org/2000/svg" xmlns:xlink="http://www.w3.org/1999/xlink" viewBox="0 0 1378.66 459.2">
  <defs>
    <style>
      .cls-1 {
        fill: #231f20;
      }

      .cls-2 {
        fill: #fff;
      }

      .cls-3, .cls-4 {
        fill: none;
      }

      .cls-5 {
        filter: url(#drop-shadow-1);
      }

      .cls-6 {
        fill: #3a5499;
      }

      .cls-7 {
        fill: #3fb549;
      }

      .cls-8 {
        fill: #010101;
      }

      .cls-9 {
        fill: #3e9143;
      }

      .cls-4 {
        stroke: #faa62a;
        stroke-miterlimit: 10;
        stroke-width: 11.59px;
      }
    </style>
    <filter id="drop-shadow-1" filterUnits="userSpaceOnUse">
      <feOffset dx="2.99" dy="2.99"/>
      <feGaussianBlur result="blur" stdDeviation="5.97"/>
      <feFlood flood-color="#010101" flood-opacity=".61"/>
      <feComposite in2="blur" operator="in"/>
      <feComposite in="SourceGraphic"/>
    </filter>
  </defs>
  <g id="Layer_1-2" data-name="Layer_1">
    <g>
      <g class="cls-5">
        <g>
          <path class="cls-2" d="M43.44,6.27h1291.78c20.52,0,37.17,16.66,37.17,37.17v372.32c0,20.52-16.66,37.17-37.17,37.17H43.44c-20.52,0-37.17-16.66-37.17-37.17V43.44C6.27,22.92,22.92,6.27,43.44,6.27Z"/>
          <path class="cls-8" d="M1335.22,6.74c20.24,0,36.7,16.46,36.7,36.7v372.32c0,20.24-16.46,36.7-36.7,36.7H43.44c-20.24,0-36.7-16.46-36.7-36.7V43.44C6.74,23.2,23.2,6.74,43.44,6.74h1291.78M1335.22,5.79H43.44C22.65,5.79,5.79,22.65,5.79,43.44v372.32c0,20.79,16.85,37.65,37.65,37.65h1291.78c20.79,0,37.65-16.85,37.65-37.65V43.44c0-20.79-16.85-37.65-37.65-37.65h0Z"/>
        </g>
        <rect class="cls-4" x="5.79" y="5.79" width="1367.08" height="447.62" rx="37.65" ry="37.65"/>
      </g>
      <g>
        <path class="cls-8" d="M208.41,129.22c-3.62,0-6.35-1.11-8.19-3.33-1.84-2.22-2.75-5.01-2.75-8.38,0-2.5.47-4.64,1.42-6.43.94-1.79,2.38-3.18,4.32-4.17,1.94-.99,4.36-1.49,7.27-1.49,3.26,0,5.97.64,8.11,1.91,2.14,1.28,3.54,3.14,4.21,5.59l1.76,6.04c.15.56.41.99.77,1.3.36.31.77.46,1.22.46.56,0,.98-.18,1.26-.54.28-.36.42-.84.42-1.45v-15.76c0-2.6-.54-4.72-1.61-6.35-1.07-1.63-2.61-2.83-4.63-3.6-2.02-.77-4.43-1.15-7.23-1.15-2.19,0-3.94.23-5.24.69-1.3.46-1.95,1.1-1.95,1.91,0,.56.31,1.02.92,1.38.61.36,1.43.64,2.45.84,1.02.2,2.19.31,3.52.31,3.42,0,6.29-.55,8.61-1.65,2.32-1.1,4.07-2.51,5.24-4.25,1.17-1.73,1.76-3.55,1.76-5.43v-.69h10.02v.77c0,3.37-1.12,6.36-3.37,8.99-2.24,2.63-5.31,4.68-9.18,6.16-3.88,1.48-8.26,2.22-13.16,2.22-3.32,0-6.19-.36-8.61-1.07-2.42-.71-4.27-1.72-5.55-3.02-1.28-1.3-1.91-2.89-1.91-4.78,0-2.65,1.36-4.77,4.09-6.35,2.73-1.58,7-2.37,12.82-2.37,5.46,0,9.98.7,13.58,2.1,3.6,1.4,6.27,3.36,8.03,5.85,1.76,2.5,2.64,5.43,2.64,8.8v16.14c0,3.52-1.03,6.2-3.1,8.03-2.07,1.84-4.96,2.75-8.68,2.75-2.86,0-5.23-.56-7.12-1.68-1.89-1.12-3.16-2.73-3.83-4.82l-1.99-6.35c-.31-1.02-.82-1.82-1.53-2.41-.71-.59-1.63-.88-2.75-.88s-2.09.33-2.75.99-.99,1.66-.99,2.98c0,1.22.28,2.17.84,2.83.56.66,1.4.99,2.53.99.36,0,.73-.02,1.11-.08.38-.05.78-.13,1.19-.23l1.84,7.5c-.77.36-1.67.64-2.72.84-1.05.2-2.08.31-3.1.31Z"/>
        <path class="cls-8" d="M255.61,128.45v-30.07c0-1.48-.42-2.53-1.26-3.14-.84-.61-1.98-.92-3.4-.92-.92,0-1.8.09-2.64.27s-1.62.42-2.33.73l-1.45-7.96c1.27-.51,2.8-.94,4.59-1.3,1.79-.36,3.65-.54,5.59-.54,4.13,0,7.24.88,9.33,2.64,2.09,1.76,3.14,4.55,3.14,8.38v31.91h-11.55Z"/>
        <path class="cls-8" d="M280.63,129.22c-1.38,0-2.72-.15-4.02-.46-1.3-.31-2.49-.74-3.56-1.3l1.61-7.58c.46.15.9.28,1.34.38.43.1.88.15,1.34.15.77,0,1.36-.19,1.8-.57.43-.38.65-1.01.65-1.87v-31.68h11.55v27.01c0,1.73.28,3.12.84,4.17.56,1.05,1.3,1.79,2.22,2.22.92.43,1.94.65,3.06.65,2.09,0,3.65-.64,4.67-1.91,1.02-1.27,1.53-3.11,1.53-5.51v-26.63h11.55v27.55c0,3.01-.55,5.67-1.65,7.99-1.1,2.32-2.74,4.13-4.93,5.43-2.19,1.3-4.95,1.95-8.26,1.95-2.55,0-4.76-.43-6.62-1.3-1.86-.87-3.51-2.19-4.93-3.98h-2.83l2.68-2.37v1.45c0,1.99-.73,3.52-2.18,4.59-1.45,1.07-3.4,1.61-5.85,1.61Z"/>
        <path class="cls-8" d="M331.06,128.45v-30.07c0-1.48-.42-2.53-1.26-3.14-.84-.61-1.98-.92-3.4-.92-.92,0-1.8.09-2.64.27s-1.62.42-2.33.73l-1.45-7.96c1.27-.51,2.8-.94,4.59-1.3,1.79-.36,3.65-.54,5.59-.54,4.13,0,7.24.88,9.33,2.64,2.09,1.76,3.14,4.55,3.14,8.38v31.91h-11.55Z"/>
        <path class="cls-8" d="M366.56,129.22c-3.98,0-7.18-.91-9.6-2.72-2.42-1.81-4.16-4.27-5.2-7.38-1.05-3.11-1.57-6.68-1.57-10.71,0-5.61.89-10.09,2.68-13.43,1.78-3.34,4.25-5.75,7.38-7.23,3.14-1.48,6.77-2.22,10.9-2.22,6.12,0,10.88,1.43,14.27,4.28,3.39,2.86,5.09,7.07,5.09,12.62v26.01h-11.63v-26.32c0-2.45-.63-4.35-1.87-5.7-1.25-1.35-3.28-2.03-6.08-2.03-1.89,0-3.52.41-4.9,1.22-1.38.82-2.44,2.22-3.18,4.21-.74,1.99-1.11,4.72-1.11,8.19,0,2.86.27,5.19.8,7,.54,1.81,1.31,3.16,2.33,4.05,1.02.89,2.32,1.34,3.9,1.34.51,0,1.08-.05,1.72-.15.64-.1,1.24-.25,1.8-.46l1.38,8.19c-1.07.41-2.21.71-3.4.92-1.2.2-2.44.31-3.71.31Z"/>
        <path class="cls-8" d="M414.38,129.22c-3.98,0-7.18-.87-9.6-2.6-2.42-1.73-4.16-4.22-5.2-7.46-1.05-3.24-1.57-7.08-1.57-11.52,0-5.05.57-9.21,1.72-12.47,1.15-3.26,2.75-5.69,4.82-7.27,2.07-1.58,4.37-2.37,6.92-2.37,1.89,0,3.53.4,4.93,1.19,1.4.79,2.41,1.88,3.02,3.25h.23c.82-1.38,2.04-2.46,3.67-3.25,1.63-.79,3.47-1.19,5.51-1.19,3.77,0,6.49,1.2,8.15,3.6,1.66,2.4,2.49,5.69,2.49,9.87v29.46h-11.55v-29.15c0-1.58-.23-2.79-.69-3.63-.46-.84-1.17-1.26-2.14-1.26s-1.71.37-2.22,1.11c-.51.74-.84,1.75-.99,3.02h-4.74c-.1-1.33-.41-2.35-.92-3.06-.51-.71-1.2-1.07-2.07-1.07-1.38,0-2.49.98-3.33,2.95-.84,1.96-1.26,5.14-1.26,9.53,0,3.32.24,5.96.73,7.92.48,1.96,1.24,3.39,2.26,4.28,1.02.89,2.35,1.34,3.98,1.34.56,0,1.16-.05,1.8-.15.64-.1,1.24-.25,1.8-.46l1.38,8.19c-1.07.41-2.19.71-3.37.92-1.17.2-2.42.31-3.75.31Z"/>
        <path class="cls-8" d="M414.91,80.48c-2.24,0-4.34-.32-6.27-.96-1.94-.64-3.49-1.61-4.67-2.91-1.17-1.3-1.76-2.95-1.76-4.93,0-2.24.77-4.16,2.3-5.74,1.53-1.58,3.66-2.79,6.39-3.63,2.73-.84,5.85-1.26,9.37-1.26s6.72.42,9.45,1.26c2.73.84,4.87,2.05,6.43,3.63,1.56,1.58,2.33,3.49,2.33,5.74,0,1.99-.59,3.63-1.76,4.93-1.17,1.3-2.73,2.27-4.67,2.91-1.94.64-4.03.96-6.27.96l-1.3-4.82c.51-.05,1.08-.14,1.72-.27.64-.13,1.25-.33,1.84-.61.59-.28,1.06-.65,1.42-1.11.36-.46.54-1.02.54-1.68,0-1.38-.85-2.47-2.56-3.29-1.71-.82-4.09-1.22-7.15-1.22s-5.48.41-7.12,1.22c-1.63.82-2.45,1.91-2.45,3.29,0,.66.18,1.22.54,1.68.36.46.83.83,1.42,1.11.59.28,1.2.48,1.84.61.64.13,1.21.22,1.72.27l-1.3,4.82Z"/>
        <path class="cls-8" d="M463.42,129.22c-3.98,0-7.18-.91-9.6-2.72-2.42-1.81-4.16-4.27-5.2-7.38-1.05-3.11-1.57-6.68-1.57-10.71,0-5.61.89-10.09,2.68-13.43,1.78-3.34,4.25-5.75,7.38-7.23,3.14-1.48,6.77-2.22,10.9-2.22,6.12,0,10.88,1.43,14.27,4.28,3.39,2.86,5.09,7.07,5.09,12.62v26.01h-11.63v-26.32c0-2.45-.63-4.35-1.87-5.7-1.25-1.35-3.28-2.03-6.08-2.03-1.89,0-3.52.41-4.9,1.22-1.38.82-2.44,2.22-3.18,4.21-.74,1.99-1.11,4.72-1.11,8.19,0,2.86.27,5.19.8,7,.54,1.81,1.31,3.16,2.33,4.05,1.02.89,2.32,1.34,3.9,1.34.51,0,1.08-.05,1.72-.15.64-.1,1.24-.25,1.8-.46l1.38,8.19c-1.07.41-2.21.71-3.4.92-1.2.2-2.44.31-3.71.31Z"/>
        <path class="cls-8" d="M511.24,129.22c-3.98,0-7.18-.87-9.6-2.6-2.42-1.73-4.16-4.22-5.2-7.46-1.05-3.24-1.57-7.08-1.57-11.52,0-5.05.57-9.21,1.72-12.47,1.15-3.26,2.75-5.69,4.82-7.27,2.07-1.58,4.37-2.37,6.92-2.37,1.89,0,3.53.4,4.93,1.19,1.4.79,2.41,1.88,3.02,3.25h.23c.82-1.38,2.04-2.46,3.67-3.25,1.63-.79,3.47-1.19,5.51-1.19,3.77,0,6.49,1.2,8.15,3.6,1.66,2.4,2.49,5.69,2.49,9.87v29.46h-11.55v-29.15c0-1.58-.23-2.79-.69-3.63-.46-.84-1.17-1.26-2.14-1.26s-1.71.37-2.22,1.11c-.51.74-.84,1.75-.99,3.02h-4.74c-.1-1.33-.41-2.35-.92-3.06-.51-.71-1.2-1.07-2.07-1.07-1.38,0-2.49.98-3.33,2.95s-1.26,5.14-1.26,9.53c0,3.32.24,5.96.73,7.92.48,1.96,1.24,3.39,2.26,4.28,1.02.89,2.35,1.34,3.98,1.34.56,0,1.16-.05,1.8-.15.64-.1,1.24-.25,1.8-.46l1.38,8.19c-1.07.41-2.19.71-3.37.92-1.17.2-2.42.31-3.75.31Z"/>
        <path class="cls-8" d="M517.13,80.55c-2.96,0-5.28-.75-6.96-2.26s-2.53-3.56-2.53-6.16.84-4.64,2.53-6.12c1.68-1.48,4.01-2.22,6.96-2.22s5.28.74,6.96,2.22c1.68,1.48,2.53,3.52,2.53,6.12s-.84,4.66-2.53,6.16-4,2.26-6.96,2.26ZM512.77,59.67v-13.16h8.72v13.16h-8.72ZM517.13,75.66c1.17,0,2.09-.32,2.75-.96.66-.64.99-1.49.99-2.56s-.33-1.91-.99-2.53c-.66-.61-1.58-.92-2.75-.92s-2.09.31-2.75.92c-.66.61-.99,1.45-.99,2.53s.33,1.93.99,2.56c.66.64,1.58.96,2.75.96Z"/>
        <path class="cls-8" d="M554.85,129.22c-3.62,0-6.35-1.11-8.19-3.33-1.84-2.22-2.75-5.01-2.75-8.38,0-2.5.47-4.64,1.42-6.43.94-1.79,2.38-3.18,4.32-4.17,1.94-.99,4.36-1.49,7.27-1.49,3.26,0,5.97.64,8.11,1.91,2.14,1.28,3.54,3.14,4.21,5.59l1.76,6.04c.15.56.41.99.77,1.3.36.31.77.46,1.22.46.56,0,.98-.18,1.26-.54.28-.36.42-.84.42-1.45v-15.76c0-2.6-.54-4.72-1.61-6.35-1.07-1.63-2.61-2.83-4.63-3.6-2.02-.77-4.43-1.15-7.23-1.15-2.19,0-3.94.23-5.24.69-1.3.46-1.95,1.1-1.95,1.91,0,.56.31,1.02.92,1.38.61.36,1.43.64,2.45.84,1.02.2,2.19.31,3.52.31,3.42,0,6.29-.55,8.61-1.65,2.32-1.1,4.07-2.51,5.24-4.25,1.17-1.73,1.76-3.55,1.76-5.43v-.69h10.02v.77c0,3.37-1.12,6.36-3.37,8.99-2.24,2.63-5.31,4.68-9.18,6.16-3.88,1.48-8.26,2.22-13.16,2.22-3.32,0-6.19-.36-8.61-1.07-2.42-.71-4.27-1.72-5.55-3.02-1.28-1.3-1.91-2.89-1.91-4.78,0-2.65,1.36-4.77,4.09-6.35,2.73-1.58,7-2.37,12.82-2.37,5.46,0,9.98.7,13.58,2.1,3.6,1.4,6.27,3.36,8.03,5.85,1.76,2.5,2.64,5.43,2.64,8.8v16.14c0,3.52-1.03,6.2-3.1,8.03s-4.96,2.75-8.68,2.75c-2.86,0-5.23-.56-7.12-1.68-1.89-1.12-3.16-2.73-3.83-4.82l-1.99-6.35c-.31-1.02-.82-1.82-1.53-2.41-.71-.59-1.63-.88-2.75-.88s-2.09.33-2.75.99-.99,1.66-.99,2.98c0,1.22.28,2.17.84,2.83.56.66,1.4.99,2.53.99.36,0,.73-.02,1.11-.08.38-.05.78-.13,1.19-.23l1.84,7.5c-.77.36-1.67.64-2.72.84-1.05.2-2.08.31-3.1.31Z"/>
        <path class="cls-8" d="M612.85,129.22c-3.67,0-6.94-.51-9.79-1.53-2.86-1.02-5.09-2.49-6.7-4.4-1.61-1.91-2.41-4.17-2.41-6.77,0-1.17.15-2.21.46-3.1.31-.89.66-1.7,1.07-2.41l9.03,2.75c-.15.36-.27.7-.34,1.03-.08.33-.12.6-.12.8,0,1.02.42,1.91,1.26,2.68s1.94,1.34,3.29,1.72c1.35.38,2.72.57,4.09.57,3.47,0,6.06-1.16,7.77-3.48,1.71-2.32,2.56-5.55,2.56-9.68,0-4.44-.92-7.73-2.75-9.87-1.83-2.14-4.54-3.21-8.11-3.21-2.19,0-4.01.4-5.43,1.19-1.43.79-2.14,1.9-2.14,3.33,0,1.33.66,2.37,1.99,3.14,1.32.77,3.14,1.15,5.43,1.15,1.23,0,2.45-.12,3.67-.34s2.41-.56,3.56-.99c1.15-.43,2.16-1.01,3.02-1.72l2.83,6.5c-1.12.92-2.45,1.71-3.98,2.37-1.53.66-3.2,1.16-5.01,1.49-1.81.33-3.68.5-5.62.5-5.2,0-9.26-1.1-12.17-3.29-2.91-2.19-4.36-5.2-4.36-9.03,0-2.65.71-4.96,2.14-6.92,1.43-1.96,3.51-3.48,6.23-4.55,2.73-1.07,5.98-1.61,9.76-1.61,4.54,0,8.45.79,11.74,2.37,3.29,1.58,5.84,4.01,7.65,7.27,1.81,3.27,2.72,7.4,2.72,12.4s-.86,8.8-2.56,12.01c-1.71,3.21-4.16,5.62-7.35,7.23-3.19,1.61-7,2.41-11.44,2.41Z"/>
        <path class="cls-8" d="M660.44,129.22c-6.33,0-11.03-1.53-14.12-4.59-3.09-3.06-4.63-7.47-4.63-13.24v-25.1h11.55v26.24c0,2.5.59,4.43,1.76,5.78,1.17,1.35,2.98,2.03,5.43,2.03s4.32-.68,5.47-2.03c1.15-1.35,1.72-3.28,1.72-5.78v-26.24h11.55v25.1c0,5.76-1.53,10.18-4.59,13.24-3.06,3.06-7.78,4.59-14.15,4.59Z"/>
        <path class="cls-8" d="M715.3,142.53v-40.78c0-1.63-.26-2.98-.77-4.06-.51-1.07-1.24-1.89-2.18-2.45-.95-.56-2.13-.84-3.56-.84-.82,0-1.63.13-2.45.38-.82.26-1.54.64-2.18,1.15-.64.51-1.16,1.22-1.57,2.14-.41.92-.61,2.04-.61,3.37v16.3c0,.87.2,1.53.61,1.99.41.46,1.07.69,1.99.69.41,0,.84-.05,1.3-.15.46-.1.87-.23,1.22-.38l1.68,7.58c-1.22.56-2.63.99-4.21,1.3-1.58.31-3.06.46-4.44.46-3.06,0-5.45-.91-7.15-2.72-1.71-1.81-2.56-4.37-2.56-7.69v-15.69c0-2.75-.4-4.96-1.19-6.62-.79-1.66-2.03-3.23-3.71-4.71l7.5-6.27c.97.56,1.96,1.44,2.98,2.64,1.02,1.2,1.71,2.28,2.07,3.25h.23c1.07-1.33,2.32-2.42,3.75-3.29,1.43-.87,2.97-1.52,4.63-1.95,1.66-.43,3.4-.65,5.24-.65,3.21,0,5.94.63,8.19,1.88,2.24,1.25,3.93,3.01,5.05,5.28,1.12,2.27,1.68,4.91,1.68,7.92v41.93h-11.55Z"/>
        <path class="cls-8" d="M742.77,128.45v-30.07c0-1.48-.42-2.53-1.26-3.14-.84-.61-1.98-.92-3.4-.92-.92,0-1.8.09-2.64.27-.84.18-1.62.42-2.33.73l-1.45-7.96c1.27-.51,2.8-.94,4.59-1.3,1.78-.36,3.65-.54,5.58-.54,4.13,0,7.24.88,9.33,2.64,2.09,1.76,3.14,4.55,3.14,8.38v31.91h-11.55Z"/>
        <path class="cls-8" d="M767.79,129.22c-1.38,0-2.72-.15-4.02-.46-1.3-.31-2.49-.74-3.56-1.3l1.61-7.58c.46.15.91.28,1.34.38.43.1.88.15,1.34.15.77,0,1.36-.19,1.8-.57.43-.38.65-1.01.65-1.87v-31.68h11.55v27.01c0,1.73.28,3.12.84,4.17.56,1.05,1.3,1.79,2.22,2.22.92.43,1.94.65,3.06.65,2.09,0,3.65-.64,4.67-1.91,1.02-1.27,1.53-3.11,1.53-5.51v-26.63h11.55v27.55c0,3.01-.55,5.67-1.64,7.99-1.1,2.32-2.74,4.13-4.93,5.43-2.19,1.3-4.95,1.95-8.26,1.95-2.55,0-4.76-.43-6.62-1.3-1.86-.87-3.51-2.19-4.93-3.98h-2.83l2.68-2.37v1.45c0,1.99-.73,3.52-2.18,4.59-1.45,1.07-3.4,1.61-5.85,1.61Z"/>
        <path class="cls-8" d="M821.58,129.22c-3.01,0-5.47-.75-7.38-2.26-1.91-1.5-2.87-4.09-2.87-7.77v-32.9h11.55v32.06c0,.87.19,1.49.57,1.87s1.01.57,1.88.57c.46,0,.92-.05,1.38-.15.46-.1.94-.23,1.45-.38l1.53,7.04c-1.38.66-2.75,1.15-4.13,1.45-1.38.31-2.7.46-3.98.46Z"/>
        <path class="cls-8" d="M847.36,129.22c-3.62,0-6.59-1.16-8.91-3.48-2.32-2.32-3.48-5.83-3.48-10.52v-28.92h11.09v30.07c0,1.28.32,2.26.96,2.95.64.69,1.54,1.03,2.72,1.03s2.15-.36,2.79-1.07c.64-.71.96-1.71.96-2.98v-29.99h9.26v29.99c0,1.28.32,2.27.96,2.98.64.71,1.59,1.07,2.87,1.07,1.17,0,2.05-.34,2.64-1.03.59-.69.88-1.67.88-2.95v-30.07h11.17v28.92c0,4.69-1.15,8.2-3.44,10.52-2.3,2.32-5.28,3.48-8.95,3.48-2.65,0-4.86-.52-6.62-1.57s-3.07-2.26-3.94-3.63h-.46c-.82,1.38-2.1,2.59-3.86,3.63-1.76,1.04-3.97,1.57-6.62,1.57Z"/>
        <path class="cls-8" d="M857.46,80.48c-2.24,0-4.34-.32-6.27-.96-1.94-.64-3.49-1.61-4.67-2.91-1.17-1.3-1.76-2.95-1.76-4.93,0-2.24.77-4.16,2.3-5.74,1.53-1.58,3.66-2.79,6.39-3.63,2.73-.84,5.83-1.26,9.3-1.26,3.72,0,6.95.43,9.68,1.3,2.73.87,4.85,2,6.35,3.41,1.51,1.4,2.26,2.97,2.26,4.71,0,.92-.24,1.7-.73,2.33-.48.64-1.11,1.21-1.87,1.72v.15c.61-.2,1.42-.37,2.41-.5.99-.13,1.82-.19,2.49-.19h1.22v6.5h-16.14l-1.3-4.82c.51-.05,1.1-.14,1.76-.27.66-.13,1.28-.33,1.84-.61.56-.28,1.02-.65,1.38-1.11.36-.46.54-1.02.54-1.68,0-1.38-.87-2.47-2.6-3.29s-4.13-1.22-7.19-1.22-5.42.41-7.08,1.22c-1.66.82-2.49,1.91-2.49,3.29,0,.66.18,1.22.54,1.68.36.46.83.83,1.42,1.11.59.28,1.2.48,1.84.61s1.21.22,1.72.27l-1.3,4.82Z"/>
        <path class="cls-8" d="M868.94,56.3v-13.16h8.72v13.16h-8.72Z"/>
        <path class="cls-8" d="M894.64,129.22c-1.38,0-2.72-.15-4.02-.46-1.3-.31-2.49-.74-3.56-1.3l1.61-7.58c.46.15.91.28,1.34.38.43.1.88.15,1.34.15.77,0,1.36-.19,1.8-.57.43-.38.65-1.01.65-1.87v-31.68h11.55v27.01c0,1.73.28,3.12.84,4.17.56,1.05,1.3,1.79,2.22,2.22.92.43,1.94.65,3.06.65,2.09,0,3.65-.64,4.67-1.91,1.02-1.27,1.53-3.11,1.53-5.51v-26.63h11.55v27.55c0,3.01-.55,5.67-1.64,7.99-1.1,2.32-2.74,4.13-4.93,5.43-2.19,1.3-4.95,1.95-8.26,1.95-2.55,0-4.76-.43-6.62-1.3-1.86-.87-3.51-2.19-4.93-3.98h-2.83l2.68-2.37v1.45c0,1.99-.73,3.52-2.18,4.59-1.45,1.07-3.4,1.61-5.85,1.61Z"/>
        <path class="cls-8" d="M948.43,129.22c-3.01,0-5.47-.75-7.38-2.26-1.91-1.5-2.87-4.09-2.87-7.77v-32.9h11.55v32.06c0,.87.19,1.49.57,1.87s1.01.57,1.88.57c.46,0,.92-.05,1.38-.15.46-.1.94-.23,1.45-.38l1.53,7.04c-1.38.66-2.75,1.15-4.13,1.45-1.38.31-2.7.46-3.98.46Z"/>
        <path class="cls-8" d="M976.74,129.22c-3.98,0-7.18-.87-9.6-2.6-2.42-1.73-4.16-4.22-5.2-7.46-1.05-3.24-1.57-7.08-1.57-11.52,0-5.05.57-9.21,1.72-12.47,1.15-3.26,2.75-5.69,4.82-7.27,2.07-1.58,4.37-2.37,6.92-2.37,1.89,0,3.53.4,4.93,1.19,1.4.79,2.41,1.88,3.02,3.25h.23c.81-1.38,2.04-2.46,3.67-3.25,1.63-.79,3.47-1.19,5.51-1.19,3.77,0,6.49,1.2,8.15,3.6,1.66,2.4,2.49,5.69,2.49,9.87v29.46h-11.55v-29.15c0-1.58-.23-2.79-.69-3.63s-1.17-1.26-2.14-1.26-1.71.37-2.22,1.11c-.51.74-.84,1.75-.99,3.02h-4.74c-.1-1.33-.41-2.35-.92-3.06-.51-.71-1.2-1.07-2.07-1.07-1.38,0-2.49.98-3.33,2.95-.84,1.96-1.26,5.14-1.26,9.53,0,3.32.24,5.96.73,7.92.48,1.96,1.24,3.39,2.26,4.28,1.02.89,2.35,1.34,3.98,1.34.56,0,1.16-.05,1.8-.15.64-.1,1.24-.25,1.8-.46l1.38,8.19c-1.07.41-2.19.71-3.37.92-1.17.2-2.42.31-3.75.31Z"/>
        <path class="cls-8" d="M977.28,80.48c-2.24,0-4.34-.32-6.27-.96-1.94-.64-3.49-1.61-4.67-2.91-1.17-1.3-1.76-2.95-1.76-4.93,0-2.24.77-4.16,2.3-5.74,1.53-1.58,3.66-2.79,6.39-3.63,2.73-.84,5.83-1.26,9.3-1.26,3.72,0,6.95.43,9.68,1.3,2.73.87,4.85,2,6.35,3.41,1.51,1.4,2.26,2.97,2.26,4.71,0,.92-.24,1.7-.73,2.33-.48.64-1.11,1.21-1.87,1.72v.15c.61-.2,1.42-.37,2.41-.5.99-.13,1.82-.19,2.49-.19h1.22v6.5h-16.14l-1.3-4.82c.51-.05,1.1-.14,1.76-.27.66-.13,1.28-.33,1.84-.61.56-.28,1.02-.65,1.38-1.11.36-.46.54-1.02.54-1.68,0-1.38-.87-2.47-2.6-3.29s-4.13-1.22-7.19-1.22-5.42.41-7.08,1.22c-1.66.82-2.49,1.91-2.49,3.29,0,.66.18,1.22.54,1.68.36.46.83.83,1.42,1.11.59.28,1.2.48,1.84.61s1.21.22,1.72.27l-1.3,4.82Z"/>
        <path class="cls-8" d="M1015.3,129.22c-1.38,0-2.72-.15-4.02-.46-1.3-.31-2.49-.74-3.56-1.3l1.61-7.58c.46.15.91.28,1.34.38.43.1.88.15,1.34.15.77,0,1.36-.19,1.8-.57.43-.38.65-1.01.65-1.87v-31.68h11.55v27.01c0,1.73.28,3.12.84,4.17.56,1.05,1.3,1.79,2.22,2.22.92.43,1.94.65,3.06.65,2.09,0,3.65-.64,4.67-1.91,1.02-1.27,1.53-3.11,1.53-5.51v-26.63h11.55v27.55c0,3.01-.55,5.67-1.64,7.99-1.1,2.32-2.74,4.13-4.93,5.43-2.19,1.3-4.95,1.95-8.26,1.95-2.55,0-4.76-.43-6.62-1.3-1.86-.87-3.51-2.19-4.93-3.98h-2.83l2.68-2.37v1.45c0,1.99-.73,3.52-2.18,4.59-1.45,1.07-3.4,1.61-5.85,1.61Z"/>
        <path class="cls-8" d="M1072.38,129.22c-2.96,0-5.41-.75-7.35-2.26-1.94-1.5-2.91-4.09-2.91-7.77v-31.91c0-2.65.29-5.05.88-7.19.59-2.14,1.38-4,2.37-5.59.99-1.58,2.13-2.75,3.4-3.52l-.08-.31h-15.69l2.6-7.8h25.33v8.42c-2.5.97-4.32,2.6-5.47,4.9-1.15,2.29-1.72,5.43-1.72,9.41v32.75c0,.87.18,1.49.53,1.87s.97.57,1.84.57c.46,0,.93-.05,1.42-.15.48-.1.96-.23,1.42-.38l1.61,7.04c-1.43.66-2.82,1.15-4.17,1.45-1.35.31-2.69.46-4.02.46Z"/>
        <path class="cls-8" d="M1101.15,129.22c-3.98,0-7.18-.91-9.6-2.72-2.42-1.81-4.16-4.27-5.2-7.38-1.05-3.11-1.57-6.68-1.57-10.71,0-5.61.89-10.09,2.68-13.43,1.78-3.34,4.25-5.75,7.38-7.23,3.14-1.48,6.77-2.22,10.9-2.22,6.12,0,10.88,1.43,14.27,4.28,3.39,2.86,5.09,7.07,5.09,12.62v26.01h-11.63v-26.32c0-2.45-.63-4.35-1.87-5.7-1.25-1.35-3.28-2.03-6.08-2.03-1.89,0-3.52.41-4.9,1.22-1.38.82-2.44,2.22-3.18,4.21-.74,1.99-1.11,4.72-1.11,8.19,0,2.86.27,5.19.8,7,.54,1.81,1.31,3.16,2.33,4.05,1.02.89,2.32,1.34,3.9,1.34.51,0,1.08-.05,1.72-.15.64-.1,1.24-.25,1.8-.46l1.38,8.19c-1.07.41-2.21.71-3.4.92-1.2.2-2.44.31-3.71.31Z"/>
        <path class="cls-8" d="M1102.76,79.71v-3.75c.92-.15,1.8-.42,2.64-.8.84-.38,1.54-.91,2.1-1.57.56-.66.84-1.45.84-2.37,0-.81-.22-1.44-.65-1.87s-1.06-.65-1.87-.65c-.41,0-.8.05-1.19.15-.38.1-.78.26-1.19.46l-1.38-4.9c.76-.56,1.8-1.03,3.1-1.42,1.3-.38,2.72-.57,4.25-.57,2.55,0,4.48.56,5.78,1.68,1.3,1.12,1.95,2.63,1.95,4.51,0,.77-.11,1.47-.34,2.1-.23.64-.55,1.19-.96,1.64h13.77v7.35h-26.86Z"/>
        <path class="cls-8" d="M1148.51,129.22c-5.15,0-8.85-1.31-11.09-3.94-2.25-2.63-3.37-6.06-3.37-10.29v-28.69h11.17v29.61c0,1.43.29,2.53.88,3.29.59.77,1.44,1.15,2.56,1.15s2.04-.38,2.6-1.15c.56-.77.84-1.86.84-3.29v-16.14c0-2.86.43-5.34,1.3-7.46.87-2.12,2.31-3.77,4.32-4.97,2.01-1.2,4.76-1.8,8.23-1.8,5.15,0,8.86,1.31,11.13,3.94,2.27,2.63,3.4,6.06,3.4,10.29v28.69h-11.25v-29.61c0-1.43-.28-2.53-.84-3.29-.56-.77-1.43-1.15-2.6-1.15s-1.98.38-2.56,1.15c-.59.77-.88,1.86-.88,3.29v16.14c0,2.81-.43,5.28-1.3,7.42-.87,2.14-2.31,3.81-4.32,5.01-2.02,1.2-4.76,1.8-8.23,1.8Z"/>
        <path class="cls-8" d="M1155.93,80.48c-2.24,0-4.34-.32-6.27-.96-1.94-.64-3.49-1.61-4.67-2.91-1.17-1.3-1.76-2.95-1.76-4.93,0-2.24.77-4.16,2.3-5.74,1.53-1.58,3.66-2.79,6.39-3.63,2.73-.84,5.83-1.26,9.3-1.26,3.72,0,6.95.43,9.68,1.3,2.73.87,4.85,2,6.35,3.41,1.51,1.4,2.26,2.97,2.26,4.71,0,.92-.24,1.7-.73,2.33-.48.64-1.11,1.21-1.87,1.72v.15c.61-.2,1.42-.37,2.41-.5.99-.13,1.82-.19,2.49-.19h1.22v6.5h-16.14l-1.3-4.82c.51-.05,1.1-.14,1.76-.27.66-.13,1.28-.33,1.84-.61.56-.28,1.02-.65,1.38-1.11.36-.46.54-1.02.54-1.68,0-1.38-.87-2.47-2.6-3.29s-4.13-1.22-7.19-1.22-5.42.41-7.08,1.22c-1.66.82-2.49,1.91-2.49,3.29,0,.66.18,1.22.54,1.68.36.46.83.83,1.42,1.11.59.28,1.2.48,1.84.61s1.21.22,1.72.27l-1.3,4.82Z"/>
        <path class="cls-8" d="M1167.41,56.3v-13.16h8.72v13.16h-8.72Z"/>
      </g>
      <g>
        <circle class="cls-9" cx="122.03" cy="369.51" r="44.5"/>
        <path class="cls-2" d="M147.83,349.38s-.02-.03-.04-.04c-.03-.03-.07-.06-.1-.09-1.17-1.06-2.72-1.7-4.42-1.7h-42.48c-1.7,0-3.25.64-4.42,1.7-.04.03-.07.06-.1.09-.01.01-.03.03-.04.04-1.26,1.21-2.05,2.9-2.05,4.78v30.35c0,1.88.79,3.58,2.05,4.78.01.01.03.03.04.04.03.03.07.06.1.09,1.17,1.06,2.72,1.7,4.42,1.7h42.48c1.7,0,3.25-.64,4.42-1.7.04-.03.07-.06.1-.09.01-.01.03-.03.04-.04,1.26-1.21,2.05-2.9,2.05-4.78v-30.35c0-1.88-.79-3.58-2.05-4.78ZM129.78,369.34l17.05-17.24c.35.61.56,1.31.56,2.06v30.35c0,.75-.2,1.46-.56,2.06l-17.05-17.24ZM143.27,350.05c.6,0,1.18.13,1.69.37l-17.83,18.03s0,0,0,0c0,0,0,0,0,0l-3.11,3.14c-.53.54-1.24.83-2,.83s-1.47-.3-2-.83l-3.11-3.14s0,0,0,0c0,0,0,0,0,0l-17.83-18.03c.52-.23,1.09-.37,1.69-.37h42.48ZM97.23,386.58c-.35-.61-.56-1.31-.56-2.06v-30.35c0-.75.2-1.46.56-2.06l17.05,17.24-17.05,17.24ZM100.79,388.63c-.6,0-1.18-.13-1.69-.37l16.95-17.14,2.21,2.23c1.01,1.02,2.35,1.58,3.78,1.58s2.77-.56,3.78-1.58l2.21-2.23,16.95,17.14c-.52.23-1.09.37-1.69.37h-42.48Z"/>
      </g>
      <g>
        <path class="cls-7" d="M122.25,274.2c-7.75,0-15.35-2.05-22.09-5.94l-17.25,5.94,3.55-18.27c-5.56-7.62-8.49-16.58-8.49-26.01,0-24.42,19.86-44.28,44.28-44.28s44.28,19.86,44.28,44.28-19.86,44.28-44.28,44.28Z"/>
        <g>
          <g>
            <path class="cls-3" d="M122.25,203.15c-14.79,0-26.78,11.99-26.78,26.78,0,6.22,2.14,11.92,5.69,16.46l-1.79,9.22,8.7-3c4.12,2.58,8.97,4.09,14.18,4.09,14.79,0,26.78-11.99,26.78-26.78s-11.99-26.78-26.78-26.78Z"/>
            <path class="cls-2" d="M122.25,258.85c-5.06,0-10.03-1.34-14.43-3.88l-11.27,3.88,2.32-11.94c-3.63-4.98-5.54-10.83-5.54-16.99,0-15.95,12.98-28.93,28.93-28.93s28.93,12.98,28.93,28.93-12.98,28.93-28.93,28.93ZM108.34,250.24l.87.55c3.93,2.46,8.44,3.76,13.04,3.76,13.58,0,24.63-11.05,24.63-24.62s-11.05-24.62-24.63-24.62-24.62,11.05-24.62,24.62c0,5.52,1.81,10.76,5.23,15.14l.6.77-1.27,6.52,6.15-2.12Z"/>
          </g>
          <path class="cls-2" d="M107.65,218.81s1.7-2.97,3.08-3.14c1.38-.17,3.17-.17,3.65.73.48.9,2.63,6.16,2.63,6.16,0,0,.37.9-.2,1.78-.56.88-1.84,2.15-1.84,2.15,0,0-.71.9,0,1.87.71.96,1.8,2.73,4.07,4.99,2.26,2.27,6.61,3.88,6.61,3.88,0,0,.62.08,1.02-.31.39-.4,2.54-3.08,2.54-3.08,0,0,.69-.89,1.84-.37,1.14.52,6.1,3,6.1,3,0,0,.58.21.58,1.09s-.35,3.02-1.08,3.74c-.72.73-2.84,2.96-6.03,2.96s-10.77-2.59-14.81-6.63c-4.04-4.04-7.63-8.14-8.48-11.87-.85-3.73-.73-5.42.31-6.95Z"/>
        </g>
      </g>
      <g>
        <path class="cls-6" d="M783.72,228.59c0-25.18-20.41-45.59-45.59-45.59s-45.59,20.41-45.59,45.59,20.41,45.59,45.59,45.59c.13,0,.26,0,.39,0v-31.8h-10.98v-12.71h10.98v-9.37c0-10.88,6.64-16.8,16.35-16.8,4.65,0,8.64.35,9.81.5v11.37h-6.73c-5.28,0-6.3,2.51-6.3,6.19v8.12h12.59l-1.64,12.71h-10.95v29.77c18.58-5.76,32.07-23.08,32.07-43.55Z"/>
        <path class="cls-2" d="M762.59,242.36l1.64-12.71h-12.59v-8.12c0-3.68,1.02-6.19,6.3-6.19h6.73v-11.37c-1.16-.15-5.16-.5-9.81-.5-9.7,0-16.35,5.92-16.35,16.8v9.37h-10.98v12.71h10.98v31.8c4.57-.04,8.97-.74,13.13-2.03v-29.77h10.95Z"/>
      </g>
      <g>
        <path class="cls-1" d="M224.42,255.28h-25.8c-.24-.96-.36-2.07-.36-3.34,0-1.75.24-3.38.72-4.9.48-1.51,1.15-2.94,2.03-4.27.88-1.33,1.95-2.62,3.22-3.85,1.27-1.23,2.69-2.47,4.24-3.7,1.03-.8,2.01-1.58,2.93-2.36.92-.78,1.71-1.55,2.39-2.33.68-.78,1.21-1.55,1.61-2.33.4-.78.6-1.58.6-2.42,0-1.51-.56-2.78-1.67-3.79-1.12-1.01-2.55-1.52-4.3-1.52-1.31,0-2.63.34-3.94,1.02-1.31.68-2.71,1.71-4.18,3.1l-4-5.61c1.55-1.55,3.45-2.89,5.7-4,2.25-1.11,4.77-1.67,7.55-1.67,1.87,0,3.63.29,5.29.87,1.65.58,3.08,1.4,4.3,2.48,1.21,1.07,2.18,2.38,2.9,3.91.72,1.53,1.07,3.26,1.07,5.17,0,1.51-.23,2.89-.69,4.12-.46,1.23-1.09,2.38-1.88,3.43-.8,1.06-1.74,2.07-2.84,3.05-1.1.98-2.28,1.96-3.55,2.96-1.75,1.35-3.4,2.76-4.96,4.21-1.55,1.45-2.73,3.04-3.52,4.75h17.14v7.05Z"/>
        <path class="cls-1" d="M245.86,255.87c-2.63,0-4.89-.55-6.78-1.64-1.89-1.09-3.44-2.6-4.66-4.51-1.21-1.91-2.11-4.16-2.69-6.75-.58-2.59-.87-5.37-.87-8.36s.29-5.78.87-8.39c.58-2.61,1.47-4.87,2.69-6.78,1.21-1.91,2.77-3.41,4.66-4.51,1.89-1.09,4.15-1.64,6.78-1.64s4.88.55,6.75,1.64c1.87,1.1,3.42,2.6,4.66,4.51,1.23,1.91,2.14,4.17,2.72,6.78.58,2.61.87,5.4.87,8.39s-.29,5.77-.87,8.36c-.58,2.59-1.48,4.84-2.72,6.75-1.23,1.91-2.79,3.41-4.66,4.51-1.87,1.09-4.12,1.64-6.75,1.64ZM245.86,248.71c1.11,0,2.07-.34,2.87-1.02.8-.68,1.45-1.63,1.97-2.87.52-1.23.9-2.72,1.13-4.45.24-1.73.36-3.65.36-5.76s-.12-4.09-.36-5.82c-.24-1.73-.62-3.21-1.13-4.45-.52-1.23-1.17-2.19-1.97-2.87-.8-.68-1.75-1.02-2.87-1.02s-2.07.34-2.87,1.02c-.8.68-1.45,1.63-1.97,2.87-.52,1.23-.9,2.72-1.13,4.45-.24,1.73-.36,3.67-.36,5.82s.12,4.03.36,5.76c.24,1.73.62,3.22,1.13,4.45.52,1.23,1.17,2.19,1.97,2.87.8.68,1.75,1.02,2.87,1.02Z"/>
        <path class="cls-1" d="M281.81,245.6c1.35.84,2.82,1.56,4.39,2.18,1.57.62,3.17.93,4.81.93,2.71,0,4.69-.98,5.94-2.93,1.25-1.95,2-4.72,2.24-8.3-1.55,1.04-2.98,1.77-4.27,2.21-1.29.44-2.64.66-4.03.66-1.87,0-3.56-.34-5.08-1.02-1.51-.68-2.82-1.59-3.91-2.75-1.1-1.15-1.94-2.53-2.54-4.12-.6-1.59-.9-3.3-.9-5.14s.31-3.59.93-5.28c.62-1.69,1.51-3.19,2.69-4.48,1.17-1.29,2.63-2.33,4.36-3.1,1.73-.78,3.73-1.16,6-1.16,2.71,0,5.01.57,6.9,1.7,1.89,1.13,3.43,2.67,4.63,4.6,1.19,1.93,2.06,4.17,2.6,6.72.54,2.55.81,5.22.81,8s-.28,5.59-.84,8.18c-.56,2.59-1.46,4.88-2.72,6.87s-2.89,3.57-4.9,4.75c-2.01,1.17-4.47,1.76-7.38,1.76-2.47,0-4.77-.39-6.9-1.16-2.13-.78-3.93-1.7-5.4-2.78l2.57-6.33ZM299.18,231.15c-.24-3.66-.93-6.36-2.06-8.09-1.13-1.73-2.66-2.6-4.57-2.6-.96,0-1.79.18-2.51.54-.72.36-1.32.86-1.82,1.49-.5.64-.88,1.36-1.13,2.18-.26.82-.39,1.68-.39,2.6,0,1.95.54,3.52,1.61,4.72,1.08,1.19,2.55,1.79,4.42,1.79,1.19,0,2.34-.24,3.43-.72,1.09-.48,2.1-1.11,3.02-1.91Z"/>
        <path class="cls-1" d="M337.28,223.15c-1.16-.76-2.44-1.39-3.85-1.91-1.41-.52-2.82-.78-4.21-.78-2.83,0-4.85,1-6.06,2.99-1.21,1.99-1.94,4.78-2.18,8.36,1.23-.92,2.56-1.65,3.97-2.21,1.41-.56,2.92-.84,4.51-.84s3.19.3,4.69.9c1.49.6,2.8,1.46,3.91,2.6,1.11,1.13,2,2.5,2.66,4.09.66,1.59.99,3.38.99,5.37s-.32,3.91-.96,5.64c-.64,1.73-1.55,3.22-2.75,4.48-1.19,1.25-2.64,2.24-4.33,2.96-1.69.72-3.57,1.08-5.64,1.08-2.79,0-5.15-.57-7.08-1.7-1.93-1.13-3.49-2.65-4.69-4.54-1.19-1.89-2.06-4.08-2.6-6.57-.54-2.49-.81-5.09-.81-7.79,0-2.43.21-4.94.63-7.52s1.21-4.96,2.39-7.11c1.17-2.15,2.82-3.91,4.93-5.28,2.11-1.37,4.84-2.06,8.18-2.06,1.95,0,3.83.3,5.64.9,1.81.6,3.57,1.43,5.28,2.51l-2.63,6.45ZM320.98,237.84c.2,3.74.86,6.49,1.97,8.24,1.11,1.75,2.69,2.63,4.72,2.63.92,0,1.73-.18,2.45-.54.72-.36,1.32-.84,1.82-1.46.5-.62.88-1.34,1.13-2.18.26-.84.39-1.71.39-2.63,0-1.91-.54-3.48-1.61-4.72-1.07-1.23-2.59-1.85-4.54-1.85-1.19,0-2.33.24-3.4.72-1.07.48-2.05,1.08-2.93,1.79Z"/>
        <path class="cls-1" d="M350.12,244.59c1.39,1.39,2.8,2.43,4.21,3.1,1.41.68,2.94,1.02,4.57,1.02,2.07,0,3.77-.57,5.11-1.7,1.33-1.13,2-2.78,2-4.93,0-1.19-.21-2.21-.63-3.05-.42-.84-.97-1.53-1.64-2.09-.68-.56-1.45-.96-2.33-1.22-.88-.26-1.77-.39-2.69-.39s-1.89.12-2.93.36c-1.04.24-2.01.64-2.93,1.19l-4.24-2.75.78-20.24h22.51v7.05h-14.93l-.36,8.72c.8-.24,1.61-.43,2.45-.57.84-.14,1.65-.21,2.45-.21,1.71,0,3.35.28,4.93.84,1.57.56,2.98,1.4,4.21,2.54,1.23,1.13,2.22,2.54,2.96,4.21.74,1.67,1.1,3.6,1.1,5.79s-.4,4-1.19,5.67c-.8,1.67-1.87,3.1-3.22,4.27-1.35,1.18-2.94,2.08-4.75,2.72-1.81.64-3.73.96-5.76.96-2.43,0-4.86-.47-7.29-1.4-2.43-.93-4.56-2.36-6.39-4.27l4-5.61Z"/>
        <path class="cls-1" d="M383.56,245.6c1.35.84,2.82,1.56,4.39,2.18,1.57.62,3.17.93,4.81.93,2.71,0,4.69-.98,5.94-2.93,1.25-1.95,2-4.72,2.24-8.3-1.55,1.04-2.98,1.77-4.27,2.21-1.29.44-2.64.66-4.03.66-1.87,0-3.56-.34-5.08-1.02-1.51-.68-2.82-1.59-3.91-2.75-1.1-1.15-1.94-2.53-2.54-4.12-.6-1.59-.9-3.3-.9-5.14s.31-3.59.93-5.28c.62-1.69,1.51-3.19,2.69-4.48,1.17-1.29,2.63-2.33,4.36-3.1,1.73-.78,3.73-1.16,6-1.16,2.71,0,5.01.57,6.9,1.7,1.89,1.13,3.43,2.67,4.63,4.6,1.19,1.93,2.06,4.17,2.6,6.72.54,2.55.81,5.22.81,8s-.28,5.59-.84,8.18c-.56,2.59-1.46,4.88-2.72,6.87s-2.89,3.57-4.9,4.75c-2.01,1.17-4.47,1.76-7.38,1.76-2.47,0-4.77-.39-6.9-1.16-2.13-.78-3.93-1.7-5.4-2.78l2.57-6.33ZM400.94,231.15c-.24-3.66-.93-6.36-2.06-8.09-1.13-1.73-2.66-2.6-4.57-2.6-.96,0-1.79.18-2.51.54-.72.36-1.32.86-1.82,1.49-.5.64-.88,1.36-1.13,2.18-.26.82-.39,1.68-.39,2.6,0,1.95.54,3.52,1.61,4.72,1.08,1.19,2.55,1.79,4.42,1.79,1.19,0,2.34-.24,3.43-.72,1.09-.48,2.1-1.11,3.02-1.91Z"/>
        <path class="cls-1" d="M452.18,223.15c-1.16-.76-2.44-1.39-3.85-1.91-1.41-.52-2.82-.78-4.21-.78-2.83,0-4.85,1-6.06,2.99-1.21,1.99-1.94,4.78-2.18,8.36,1.23-.92,2.56-1.65,3.97-2.21,1.41-.56,2.92-.84,4.51-.84s3.19.3,4.69.9c1.49.6,2.8,1.46,3.91,2.6,1.11,1.13,2,2.5,2.66,4.09.66,1.59.99,3.38.99,5.37s-.32,3.91-.96,5.64c-.64,1.73-1.55,3.22-2.75,4.48-1.19,1.25-2.64,2.24-4.33,2.96-1.69.72-3.57,1.08-5.64,1.08-2.79,0-5.15-.57-7.08-1.7-1.93-1.13-3.49-2.65-4.69-4.54-1.19-1.89-2.06-4.08-2.6-6.57-.54-2.49-.81-5.09-.81-7.79,0-2.43.21-4.94.63-7.52s1.21-4.96,2.39-7.11c1.17-2.15,2.82-3.91,4.93-5.28,2.11-1.37,4.84-2.06,8.18-2.06,1.95,0,3.83.3,5.64.9,1.81.6,3.57,1.43,5.28,2.51l-2.63,6.45ZM435.88,237.84c.2,3.74.86,6.49,1.97,8.24,1.11,1.75,2.69,2.63,4.72,2.63.92,0,1.73-.18,2.45-.54.72-.36,1.32-.84,1.82-1.46.5-.62.88-1.34,1.13-2.18.26-.84.39-1.71.39-2.63,0-1.91-.54-3.48-1.61-4.72-1.07-1.23-2.59-1.85-4.54-1.85-1.19,0-2.33.24-3.4.72s-2.05,1.08-2.93,1.79Z"/>
        <path class="cls-1" d="M464.54,245.6c1.35.84,2.82,1.56,4.39,2.18,1.57.62,3.17.93,4.81.93,2.71,0,4.69-.98,5.94-2.93,1.25-1.95,2-4.72,2.24-8.3-1.55,1.04-2.98,1.77-4.27,2.21-1.29.44-2.64.66-4.03.66-1.87,0-3.56-.34-5.08-1.02-1.51-.68-2.82-1.59-3.91-2.75-1.1-1.15-1.94-2.53-2.54-4.12-.6-1.59-.9-3.3-.9-5.14s.31-3.59.93-5.28c.62-1.69,1.51-3.19,2.69-4.48,1.17-1.29,2.63-2.33,4.36-3.1,1.73-.78,3.73-1.16,6-1.16,2.71,0,5.01.57,6.9,1.7,1.89,1.13,3.43,2.67,4.63,4.6,1.19,1.93,2.06,4.17,2.6,6.72.54,2.55.81,5.22.81,8s-.28,5.59-.84,8.18c-.56,2.59-1.46,4.88-2.72,6.87-1.25,1.99-2.89,3.57-4.9,4.75-2.01,1.17-4.47,1.76-7.38,1.76-2.47,0-4.77-.39-6.9-1.16-2.13-.78-3.93-1.7-5.4-2.78l2.57-6.33ZM481.92,231.15c-.24-3.66-.93-6.36-2.06-8.09-1.13-1.73-2.66-2.6-4.57-2.6-.96,0-1.79.18-2.51.54-.72.36-1.32.86-1.82,1.49-.5.64-.88,1.36-1.13,2.18-.26.82-.39,1.68-.39,2.6,0,1.95.54,3.52,1.61,4.72,1.08,1.19,2.55,1.79,4.42,1.79,1.19,0,2.34-.24,3.43-.72,1.09-.48,2.1-1.11,3.02-1.91Z"/>
        <path class="cls-1" d="M498.94,244.59c1.39,1.39,2.8,2.43,4.21,3.1,1.41.68,2.94,1.02,4.57,1.02,2.07,0,3.77-.57,5.11-1.7,1.33-1.13,2-2.78,2-4.93,0-1.19-.21-2.21-.63-3.05-.42-.84-.97-1.53-1.64-2.09-.68-.56-1.45-.96-2.33-1.22-.88-.26-1.77-.39-2.69-.39s-1.89.12-2.93.36c-1.04.24-2.01.64-2.93,1.19l-4.24-2.75.78-20.24h22.51v7.05h-14.93l-.36,8.72c.8-.24,1.61-.43,2.45-.57.84-.14,1.65-.21,2.45-.21,1.71,0,3.35.28,4.93.84,1.57.56,2.98,1.4,4.21,2.54,1.23,1.13,2.22,2.54,2.96,4.21.74,1.67,1.1,3.6,1.1,5.79s-.4,4-1.19,5.67c-.8,1.67-1.87,3.1-3.22,4.27-1.35,1.18-2.94,2.08-4.75,2.72-1.81.64-3.73.96-5.76.96-2.43,0-4.86-.47-7.29-1.4-2.43-.93-4.56-2.36-6.39-4.27l4-5.61Z"/>
        <path class="cls-1" d="M532.38,245.6c1.35.84,2.82,1.56,4.39,2.18,1.57.62,3.17.93,4.81.93,2.71,0,4.69-.98,5.94-2.93,1.25-1.95,2-4.72,2.24-8.3-1.55,1.04-2.98,1.77-4.27,2.21-1.29.44-2.64.66-4.03.66-1.87,0-3.56-.34-5.08-1.02-1.51-.68-2.82-1.59-3.91-2.75-1.1-1.15-1.94-2.53-2.54-4.12-.6-1.59-.9-3.3-.9-5.14s.31-3.59.93-5.28c.62-1.69,1.51-3.19,2.69-4.48,1.17-1.29,2.63-2.33,4.36-3.1,1.73-.78,3.73-1.16,6-1.16,2.71,0,5.01.57,6.9,1.7,1.89,1.13,3.43,2.67,4.63,4.6,1.19,1.93,2.06,4.17,2.6,6.72.54,2.55.81,5.22.81,8s-.28,5.59-.84,8.18c-.56,2.59-1.46,4.88-2.72,6.87-1.25,1.99-2.89,3.57-4.9,4.75-2.01,1.17-4.47,1.76-7.38,1.76-2.47,0-4.77-.39-6.9-1.16-2.13-.78-3.93-1.7-5.4-2.78l2.57-6.33ZM549.76,231.15c-.24-3.66-.93-6.36-2.06-8.09-1.13-1.73-2.66-2.6-4.57-2.6-.96,0-1.79.18-2.51.54-.72.36-1.32.86-1.82,1.49-.5.64-.88,1.36-1.13,2.18-.26.82-.39,1.68-.39,2.6,0,1.95.54,3.52,1.61,4.72,1.08,1.19,2.55,1.79,4.42,1.79,1.19,0,2.34-.24,3.43-.72,1.09-.48,2.1-1.11,3.02-1.91Z"/>
      </g>
      <g>
        <path class="cls-1" d="M816.57,235.51c.68.39,1.45.75,2.32,1.09.87.34,1.78.64,2.73.9.95.26,1.91.47,2.88.63.97.16,1.9.24,2.81.24,1.9,0,3.35-.35,4.33-1.04s1.48-1.62,1.48-2.78c0-.78-.2-1.44-.6-1.99-.4-.55-.94-1.04-1.62-1.48-.68-.44-1.46-.82-2.35-1.16s-1.82-.69-2.78-1.04c-1.26-.45-2.54-.94-3.85-1.45-1.31-.52-2.49-1.16-3.56-1.94-1.06-.77-1.93-1.71-2.59-2.81-.66-1.1-.99-2.47-.99-4.11,0-1.55.31-2.93.94-4.14.63-1.21,1.5-2.22,2.61-3.03s2.43-1.42,3.94-1.84c1.52-.42,3.18-.63,4.99-.63,1.94,0,3.88.24,5.83.73,1.95.48,3.85,1.24,5.69,2.28l-2.47,5.18c-1.36-.68-2.83-1.25-4.43-1.72-1.6-.47-3.11-.7-4.53-.7-.68,0-1.35.07-2.01.19-.66.13-1.24.33-1.74.6-.5.27-.9.63-1.21,1.07-.31.44-.46.94-.46,1.52,0,.61.17,1.15.51,1.62.34.47.8.89,1.38,1.26.58.37,1.26.71,2.03,1.02s1.61.61,2.52.9c1.29.45,2.64.95,4.04,1.5,1.4.55,2.69,1.24,3.85,2.08,1.16.84,2.12,1.86,2.88,3.07.76,1.21,1.14,2.7,1.14,4.48,0,1.61-.32,3.04-.97,4.28-.65,1.24-1.55,2.3-2.71,3.17-1.16.87-2.55,1.53-4.16,1.98-1.61.45-3.37.68-5.28.68-2.32,0-4.62-.32-6.9-.94-2.27-.63-4.33-1.46-6.17-2.49l2.47-5.18Z"/>
        <path class="cls-1" d="M843.29,237.2c.84.32,1.73.58,2.69.77.95.19,1.85.29,2.69.29,1.81,0,3-.56,3.58-1.69.58-1.13.87-2.79.87-4.99v-22.17h7.07v22.02c0,2.1-.19,3.94-.56,5.52-.37,1.58-.97,2.9-1.79,3.97-.82,1.07-1.9,1.86-3.24,2.4-1.34.53-2.99.8-4.96.8-1.48,0-2.84-.13-4.07-.39-1.23-.26-2.36-.56-3.39-.92l1.11-5.61Z"/>
        <path class="cls-1" d="M867.25,243.64v-34.22h7.07v34.22h-7.07Z"/>
        <path class="cls-1" d="M892.32,243.64v-34.22h7.07v34.22h-7.07Z"/>
        <path class="cls-1" d="M922.33,243.64c-.26-1.1-.42-2.29-.48-3.58-.07-1.29-.1-2.4-.1-3.34v-8.62c0-.68-.06-1.31-.17-1.91-.11-.6-.3-1.11-.56-1.55-.26-.44-.62-.78-1.09-1.04-.47-.26-1.04-.39-1.72-.39-.84,0-1.71.18-2.61.53-.9.36-1.81.86-2.71,1.5v18.39h-6.83v-25.03l5.47-.58.63,3.58c1.23-1.03,2.55-1.92,3.97-2.66,1.42-.74,2.98-1.11,4.7-1.11,1.36,0,2.52.25,3.49.75.97.5,1.77,1.19,2.4,2.08.63.89,1.1,1.93,1.4,3.12.31,1.19.46,2.49.46,3.87v9.05c0,.94.03,2.05.1,3.34.06,1.29.22,2.49.48,3.58h-6.83Z"/>
        <path class="cls-1" d="M939.81,243.64l-8.96-25.32h7.26l5.18,18.39,5.57-18.39h6.78l-8.91,25.32h-6.92Z"/>
        <path class="cls-1" d="M979.3,241.46c-1.61,1.03-3.26,1.73-4.94,2.11-1.68.37-3.19.56-4.55.56-1.81,0-3.48-.29-5.01-.87-1.53-.58-2.86-1.43-3.99-2.57-1.13-1.13-2.01-2.52-2.64-4.19s-.94-3.59-.94-5.78c0-1.87.24-3.6.73-5.18.48-1.58,1.2-2.94,2.15-4.07.95-1.13,2.14-2.02,3.56-2.66,1.42-.64,3.05-.97,4.89-.97s3.36.29,4.77.87c1.4.58,2.57,1.39,3.51,2.42.94,1.03,1.65,2.24,2.15,3.63.5,1.39.75,2.87.75,4.45,0,.65-.03,1.33-.1,2.06-.07.73-.16,1.36-.29,1.91h-15.34c.39,1.87,1.14,3.27,2.25,4.19s2.54,1.38,4.28,1.38c1.1,0,2.2-.17,3.32-.51,1.11-.34,2.23-.83,3.36-1.48l2.08,4.7ZM973.25,228.73c-.07-1.71-.47-3.07-1.21-4.07-.74-1-1.87-1.5-3.39-1.5s-2.74.53-3.49,1.57c-.74,1.05-1.19,2.38-1.36,3.99h9.44Z"/>
        <path class="cls-1" d="M984.97,236.81c1.26.65,2.53,1.15,3.82,1.5,1.29.36,2.53.53,3.73.53.97,0,1.85-.15,2.64-.46.79-.31,1.19-.85,1.19-1.62s-.43-1.4-1.28-1.86c-.86-.47-1.93-.93-3.22-1.38-.9-.29-1.85-.63-2.83-1.02-.99-.39-1.9-.9-2.74-1.53-.84-.63-1.53-1.39-2.08-2.27-.55-.89-.82-1.99-.82-3.32s.27-2.36.8-3.32c.53-.95,1.24-1.74,2.13-2.37.89-.63,1.91-1.1,3.07-1.4,1.16-.31,2.37-.46,3.63-.46,1.55,0,3.15.22,4.82.65,1.66.44,3.17,1.07,4.53,1.91l-1.89,4.79c-1.36-.74-2.6-1.27-3.73-1.6-1.13-.32-2.18-.48-3.15-.48s-1.74.17-2.42.51-1.02.86-1.02,1.57c0,.77.44,1.4,1.33,1.86.89.47,1.96.91,3.22,1.33.9.29,1.85.63,2.86,1.02,1,.39,1.91.89,2.74,1.5.82.61,1.5,1.37,2.03,2.28.53.9.8,2.03.8,3.39s-.28,2.61-.85,3.56c-.57.95-1.32,1.73-2.28,2.32-.95.6-2.05,1.02-3.29,1.28-1.24.26-2.53.39-3.85.39-3.55,0-6.83-.84-9.83-2.52l1.94-4.79Z"/>
        <path class="cls-1" d="M1023.98,242.91c-1.84.81-3.71,1.21-5.62,1.21-2.94,0-5.09-.85-6.46-2.54-1.37-1.69-2.06-4.15-2.06-7.38v-10.75h-4.65v-5.13h4.65v-6l6.87-.58v6.58h6.24v5.13h-6.24v9.78c0,1.68.22,3.02.65,4.02.44,1,1.31,1.5,2.64,1.5.84,0,1.76-.18,2.76-.53l1.21,4.7Z"/>
        <path class="cls-1" d="M1058.06,243.64c-.26-1.1-.42-2.29-.48-3.58-.06-1.29-.1-2.4-.1-3.34v-8.62c0-1.45-.24-2.63-.73-3.53-.48-.9-1.4-1.36-2.76-1.36-.74,0-1.53.15-2.37.44-.84.29-1.66.71-2.47,1.26.06.45.12.9.17,1.36.05.45.07.92.07,1.4v9.05c0,.94.03,2.05.1,3.34.06,1.29.22,2.49.48,3.58h-6.83c-.26-1.1-.42-2.29-.48-3.58-.07-1.29-.1-2.4-.1-3.34v-8.62c0-1.39-.24-2.55-.73-3.49-.48-.94-1.39-1.4-2.71-1.4-.74,0-1.51.15-2.3.44-.79.29-1.57.69-2.35,1.21v18.78h-6.83v-25.03l5.47-.58.58,3.29c1.1-.94,2.31-1.75,3.63-2.44,1.32-.69,2.79-1.04,4.41-1.04s2.84.34,3.87,1.02c1.03.68,1.86,1.58,2.47,2.71,1.23-1.1,2.54-1.99,3.95-2.69,1.4-.69,2.91-1.04,4.53-1.04,1.36,0,2.52.26,3.49.77.97.52,1.77,1.22,2.4,2.11.63.89,1.1,1.93,1.4,3.12.31,1.19.46,2.47.46,3.82v9.05c0,.94.03,2.05.1,3.34.06,1.29.23,2.49.48,3.58h-6.83Z"/>
        <path class="cls-1" d="M1090.97,241.46c-1.61,1.03-3.26,1.73-4.94,2.11-1.68.37-3.19.56-4.55.56-1.81,0-3.48-.29-5.01-.87-1.53-.58-2.86-1.43-3.99-2.57-1.13-1.13-2.01-2.52-2.64-4.19s-.94-3.59-.94-5.78c0-1.87.24-3.6.73-5.18.48-1.58,1.2-2.94,2.15-4.07.95-1.13,2.14-2.02,3.56-2.66,1.42-.64,3.05-.97,4.89-.97s3.36.29,4.77.87c1.4.58,2.57,1.39,3.51,2.42.94,1.03,1.65,2.24,2.15,3.63.5,1.39.75,2.87.75,4.45,0,.65-.03,1.33-.1,2.06-.07.73-.16,1.36-.29,1.91h-15.34c.39,1.87,1.14,3.27,2.25,4.19s2.54,1.38,4.28,1.38c1.1,0,2.2-.17,3.32-.51,1.11-.34,2.23-.83,3.36-1.48l2.08,4.7ZM1084.92,228.73c-.07-1.71-.47-3.07-1.21-4.07-.74-1-1.87-1.5-3.39-1.5s-2.74.53-3.49,1.57c-.74,1.05-1.19,2.38-1.36,3.99h9.44Z"/>
        <path class="cls-1" d="M1112.42,243.64c-.26-1.1-.42-2.29-.48-3.58-.07-1.29-.1-2.4-.1-3.34v-8.62c0-.68-.06-1.31-.17-1.91-.11-.6-.3-1.11-.56-1.55-.26-.44-.62-.78-1.09-1.04-.47-.26-1.04-.39-1.72-.39-.84,0-1.71.18-2.61.53-.9.36-1.81.86-2.71,1.5v18.39h-6.83v-25.03l5.47-.58.63,3.58c1.23-1.03,2.55-1.92,3.97-2.66,1.42-.74,2.98-1.11,4.7-1.11,1.36,0,2.52.25,3.49.75.97.5,1.77,1.19,2.4,2.08.63.89,1.1,1.93,1.4,3.12.31,1.19.46,2.49.46,3.87v9.05c0,.94.03,2.05.1,3.34.06,1.29.22,2.49.48,3.58h-6.83Z"/>
        <path class="cls-1" d="M1139.81,242.91c-1.84.81-3.71,1.21-5.62,1.21-2.94,0-5.09-.85-6.46-2.54-1.37-1.69-2.06-4.15-2.06-7.38v-10.75h-4.65v-5.13h4.65v-6l6.87-.58v6.58h6.24v5.13h-6.24v9.78c0,1.68.22,3.02.65,4.02.44,1,1.31,1.5,2.64,1.5.84,0,1.76-.18,2.76-.53l1.21,4.7Z"/>
        <path class="cls-1" d="M1169.34,244.12c-2.49,0-4.72-.44-6.7-1.31-1.98-.87-3.68-2.09-5.08-3.65-1.4-1.56-2.48-3.42-3.22-5.57-.74-2.15-1.11-4.49-1.11-7.04s.37-4.9,1.11-7.04c.74-2.15,1.82-4,3.22-5.57,1.4-1.56,3.1-2.79,5.08-3.68s4.22-1.33,6.7-1.33,4.72.44,6.7,1.33,3.68,2.11,5.08,3.68c1.4,1.57,2.48,3.42,3.22,5.57.74,2.15,1.11,4.49,1.11,7.04s-.37,4.9-1.11,7.04c-.74,2.15-1.82,4-3.22,5.57-1.4,1.57-3.1,2.78-5.08,3.65-1.98.87-4.22,1.31-6.7,1.31ZM1169.34,238.26c1.45,0,2.74-.28,3.87-.85s2.07-1.36,2.81-2.37,1.31-2.25,1.69-3.7.58-3.05.58-4.79-.19-3.34-.58-4.79-.95-2.69-1.69-3.73c-.74-1.03-1.68-1.83-2.81-2.4s-2.42-.85-3.87-.85-2.74.28-3.87.85c-1.13.56-2.07,1.36-2.81,2.4-.74,1.03-1.31,2.28-1.69,3.73s-.58,3.05-.58,4.79.19,3.34.58,4.79.95,2.69,1.69,3.7c.74,1.02,1.68,1.81,2.81,2.37,1.13.56,2.42.85,3.87.85Z"/>
        <path class="cls-1" d="M1224.13,243.64v-20.18h-8.86v20.18h-6.83v-20.18h-8.86v20.18h-6.83v-20.18h-4.65v-5.13h4.65v-.87c0-3.58.86-6.22,2.59-7.92,1.73-1.69,4.3-2.54,7.72-2.54.68,0,1.36.04,2.03.12.68.08,1.44.22,2.27.41l-1.02,5.08c-.42-.06-.82-.12-1.19-.17-.37-.05-.75-.07-1.14-.07-.94,0-1.69.11-2.25.31-.56.21-1.02.54-1.36.99-.34.45-.56,1.03-.68,1.72-.11.69-.17,1.51-.17,2.44v.48h8.86v-.87c0-3.58.78-6.22,2.35-7.92,1.56-1.69,3.88-2.54,6.95-2.54.61,0,1.23.04,1.84.12.61.08,1.29.22,2.03.41l-1.02,5.08c-.32-.06-.63-.12-.92-.17-.29-.05-.6-.07-.92-.07-1.42,0-2.36.44-2.81,1.33-.45.89-.68,2.27-.68,4.14v.48h15.68v25.32h-6.83ZM1231.54,210.09c0,1.1-.35,1.99-1.04,2.66-.69.68-1.69,1.02-2.98,1.02s-2.28-.34-2.98-1.02c-.69-.68-1.04-1.57-1.04-2.66s.35-1.93,1.04-2.59c.69-.66,1.69-.99,2.98-.99s2.28.33,2.98.99c.69.66,1.04,1.52,1.04,2.59Z"/>
        <path class="cls-1" d="M1257.39,241.6c-1.26.84-2.65,1.47-4.16,1.89s-3.08.63-4.7.63c-1.84,0-3.53-.29-5.08-.87-1.55-.58-2.9-1.43-4.04-2.54s-2.03-2.48-2.66-4.09c-.63-1.61-.94-3.47-.94-5.57s.31-3.87.92-5.52c.61-1.65,1.48-3.03,2.59-4.16,1.11-1.13,2.44-2,3.99-2.61,1.55-.61,3.28-.92,5.18-.92,1.74,0,3.32.23,4.72.7,1.4.47,2.67,1.06,3.8,1.77l-1.94,4.79c-1.13-.65-2.18-1.12-3.15-1.43s-1.92-.46-2.86-.46c-2.03,0-3.61.69-4.72,2.06-1.11,1.37-1.67,3.28-1.67,5.74s.54,4.24,1.62,5.64c1.08,1.4,2.7,2.11,4.87,2.11,1.03,0,2.07-.16,3.12-.48,1.05-.32,2.09-.79,3.12-1.4l1.98,4.74Z"/>
        <path class="cls-1" d="M1275.4,243.64c-.16-.55-.32-1.48-.48-2.81-1.07.94-2.25,1.68-3.56,2.23-1.31.55-2.66.82-4.04.82-1.16,0-2.2-.19-3.12-.58-.92-.39-1.7-.93-2.35-1.62-.65-.69-1.14-1.52-1.48-2.47s-.51-1.98-.51-3.07c0-2.45.85-4.38,2.54-5.78s4.15-2.11,7.38-2.11c.71,0,1.46.03,2.25.1.79.07,1.57.16,2.35.29v-.44c0-1.55-.48-2.77-1.43-3.65-.95-.89-2.27-1.33-3.94-1.33-1.03,0-2.07.17-3.1.51s-2.07.78-3.1,1.33l-1.94-4.74c1.29-.81,2.76-1.42,4.41-1.84,1.65-.42,3.29-.63,4.94-.63,3.42,0,6.09.9,8.01,2.71,1.92,1.81,2.88,4.47,2.88,7.99v8.18c0,.94.03,2.05.1,3.34.06,1.29.23,2.49.48,3.58h-6.29ZM1274.43,232.5c-.39-.06-.83-.11-1.33-.15-.5-.03-.93-.05-1.28-.05-1.87,0-3.25.32-4.14.94-.89.63-1.33,1.52-1.33,2.69,0,1.03.3,1.81.9,2.32.6.52,1.38.77,2.35.77.84,0,1.68-.17,2.52-.51.84-.34,1.61-.75,2.32-1.23v-4.79Z"/>
        <path class="cls-1" d="M1287.01,243.64v-35.87l6.83-.58v36.45h-6.83Z"/>
      </g>
    </g>
    <g>
      <path class="cls-1" d="M205.53,379.93c.71.4,1.52.78,2.42,1.14.91.35,1.86.67,2.85.93.99.27,2,.49,3.01.66,1.01.17,1.99.25,2.93.25,1.99,0,3.49-.36,4.52-1.09,1.03-.72,1.54-1.69,1.54-2.9,0-.81-.21-1.5-.63-2.07-.42-.57-.98-1.09-1.69-1.54-.71-.45-1.52-.86-2.45-1.21-.93-.35-1.89-.71-2.9-1.09-1.31-.47-2.65-.98-4.02-1.52-1.36-.54-2.6-1.21-3.71-2.02-1.11-.81-2.01-1.78-2.7-2.93-.69-1.14-1.04-2.58-1.04-4.29,0-1.62.33-3.06.98-4.32.66-1.26,1.57-2.32,2.73-3.16,1.16-.84,2.53-1.48,4.12-1.92,1.58-.44,3.32-.66,5.2-.66,2.02,0,4.05.25,6.09.76,2.04.5,4.02,1.3,5.94,2.37l-2.58,5.4c-1.41-.71-2.96-1.3-4.62-1.79-1.67-.49-3.24-.73-4.72-.73-.71,0-1.41.07-2.1.2-.69.13-1.3.35-1.82.63-.52.29-.94.66-1.26,1.11-.32.45-.48.98-.48,1.59,0,.64.18,1.2.53,1.69s.83.93,1.44,1.31c.61.39,1.31.74,2.12,1.06.81.32,1.68.63,2.63.93,1.35.47,2.75.99,4.22,1.57,1.46.57,2.8,1.3,4.02,2.17,1.21.88,2.21,1.95,3.01,3.21.79,1.26,1.19,2.82,1.19,4.67,0,1.68-.34,3.17-1.01,4.47-.67,1.3-1.62,2.4-2.83,3.31s-2.66,1.6-4.34,2.07c-1.68.47-3.52.71-5.51.71-2.42,0-4.82-.33-7.2-.98-2.37-.66-4.52-1.52-6.44-2.6l2.58-5.41Z"/>
      <path class="cls-1" d="M233.41,381.7c.88.34,1.81.61,2.8.81.99.2,1.93.3,2.8.3,1.89,0,3.13-.59,3.74-1.77.61-1.18.91-2.91.91-5.2v-23.13h7.38v22.98c0,2.19-.19,4.11-.58,5.76-.39,1.65-1.01,3.03-1.87,4.14-.86,1.11-1.99,1.95-3.38,2.5-1.4.56-3.12.83-5.18.83-1.55,0-2.96-.13-4.24-.4-1.28-.27-2.46-.59-3.54-.96l1.16-5.86Z"/>
      <path class="cls-1" d="M258.41,388.42v-35.71h7.38v35.71h-7.38Z"/>
      <path class="cls-1" d="M269.63,397.31v-5.56h25.51v5.56h-25.51Z"/>
      <path class="cls-1" d="M298.98,388.42v-35.71h7.38v35.71h-7.38Z"/>
      <path class="cls-1" d="M330.29,388.42c-.27-1.14-.44-2.39-.51-3.74-.07-1.35-.1-2.51-.1-3.49v-8.99c0-.71-.06-1.37-.18-2-.12-.62-.31-1.16-.58-1.62-.27-.46-.65-.82-1.14-1.09-.49-.27-1.09-.4-1.79-.4-.88,0-1.79.19-2.73.56-.94.37-1.89.89-2.83,1.57v19.2h-7.12v-26.12l5.71-.61.66,3.74c1.28-1.08,2.66-2,4.14-2.78,1.48-.77,3.11-1.16,4.9-1.16,1.41,0,2.63.26,3.64.78,1.01.52,1.84,1.25,2.5,2.17.66.93,1.14,2.01,1.46,3.26.32,1.25.48,2.59.48,4.04v9.45c0,.98.03,2.14.1,3.49.07,1.35.23,2.59.5,3.74h-7.12Z"/>
      <path class="cls-1" d="M348.53,388.42l-9.35-26.42h7.58l5.4,19.2,5.81-19.2h7.07l-9.29,26.42h-7.22Z"/>
      <path class="cls-1" d="M389.75,386.14c-1.68,1.08-3.4,1.81-5.15,2.2-1.75.39-3.33.58-4.75.58-1.89,0-3.63-.3-5.23-.91-1.6-.61-2.99-1.5-4.17-2.68-1.18-1.18-2.1-2.63-2.75-4.37-.66-1.73-.99-3.75-.99-6.04,0-1.95.25-3.75.76-5.4.51-1.65,1.25-3.06,2.25-4.24.99-1.18,2.23-2.1,3.71-2.78,1.48-.67,3.18-1.01,5.1-1.01s3.51.3,4.98.91c1.46.61,2.69,1.45,3.66,2.53.98,1.08,1.73,2.34,2.25,3.79.52,1.45.78,3,.78,4.65,0,.67-.03,1.39-.1,2.15-.07.76-.17,1.42-.3,2h-16.01c.4,1.95,1.19,3.41,2.35,4.37,1.16.96,2.65,1.44,4.47,1.44,1.14,0,2.3-.18,3.46-.53,1.16-.35,2.33-.87,3.51-1.54l2.17,4.9ZM383.44,372.86c-.07-1.79-.49-3.2-1.26-4.24-.77-1.04-1.95-1.57-3.54-1.57s-2.86.55-3.64,1.64c-.77,1.09-1.25,2.48-1.41,4.17h9.85Z"/>
      <path class="cls-1" d="M395.66,381.3c1.31.67,2.64,1.2,3.99,1.57,1.35.37,2.64.56,3.89.56,1.01,0,1.93-.16,2.75-.48.82-.32,1.24-.88,1.24-1.69s-.45-1.46-1.34-1.94c-.89-.49-2.01-.97-3.36-1.44-.94-.3-1.93-.66-2.96-1.06-1.03-.4-1.98-.93-2.85-1.59-.88-.66-1.6-1.45-2.17-2.37-.57-.93-.86-2.08-.86-3.46s.28-2.47.83-3.46c.56-.99,1.3-1.82,2.22-2.47.93-.66,2-1.14,3.21-1.46,1.21-.32,2.48-.48,3.79-.48,1.62,0,3.29.23,5.03.68,1.73.45,3.31,1.12,4.72,2l-1.97,5c-1.41-.77-2.71-1.33-3.89-1.67-1.18-.34-2.27-.51-3.28-.51s-1.82.18-2.53.53c-.71.35-1.06.9-1.06,1.64,0,.81.46,1.46,1.39,1.94.93.49,2.05.95,3.36,1.39.94.3,1.94.66,2.98,1.06,1.04.4,2,.93,2.85,1.57.86.64,1.57,1.43,2.12,2.37.56.94.83,2.12.83,3.54s-.3,2.72-.88,3.71c-.59.99-1.38,1.8-2.37,2.42-.99.62-2.14,1.07-3.44,1.34-1.3.27-2.64.4-4.02.4-3.7,0-7.12-.88-10.25-2.63l2.02-5Z"/>
      <path class="cls-1" d="M436.37,387.66c-1.92.84-3.87,1.26-5.86,1.26-3.06,0-5.31-.88-6.74-2.65-1.43-1.77-2.15-4.34-2.15-7.7v-11.21h-4.85v-5.35h4.85v-6.26l7.17-.61v6.87h6.52v5.35h-6.52v10.2c0,1.75.23,3.15.68,4.19.45,1.04,1.37,1.57,2.75,1.57.88,0,1.83-.18,2.88-.56l1.26,4.9Z"/>
      <path class="cls-1" d="M471.93,388.42c-.27-1.14-.44-2.39-.5-3.74-.07-1.35-.1-2.51-.1-3.49v-8.99c0-1.52-.25-2.74-.76-3.69-.5-.94-1.46-1.41-2.88-1.41-.77,0-1.6.15-2.48.45-.88.3-1.73.74-2.58,1.31.07.47.13.94.18,1.41.05.47.08.96.08,1.47v9.45c0,.98.03,2.14.1,3.49.07,1.35.23,2.59.5,3.74h-7.12c-.27-1.14-.44-2.39-.5-3.74-.07-1.35-.1-2.51-.1-3.49v-8.99c0-1.45-.25-2.66-.76-3.64-.5-.98-1.45-1.46-2.83-1.46-.77,0-1.57.15-2.4.45-.83.3-1.64.72-2.45,1.26v19.6h-7.12v-26.12l5.71-.61.61,3.43c1.14-.98,2.41-1.83,3.79-2.55,1.38-.72,2.91-1.09,4.6-1.09s2.96.35,4.04,1.06c1.08.71,1.94,1.65,2.58,2.83,1.28-1.14,2.65-2.08,4.12-2.8,1.46-.72,3.04-1.09,4.72-1.09,1.41,0,2.63.27,3.64.81,1.01.54,1.84,1.27,2.5,2.2.66.93,1.14,2.01,1.46,3.26.32,1.25.48,2.58.48,3.99v9.45c0,.98.03,2.14.1,3.49.07,1.35.23,2.59.5,3.74h-7.12Z"/>
      <path class="cls-1" d="M506.28,386.14c-1.68,1.08-3.4,1.81-5.15,2.2-1.75.39-3.33.58-4.75.58-1.89,0-3.63-.3-5.23-.91-1.6-.61-2.99-1.5-4.17-2.68-1.18-1.18-2.1-2.63-2.75-4.37-.66-1.73-.99-3.75-.99-6.04,0-1.95.25-3.75.76-5.4.51-1.65,1.25-3.06,2.25-4.24.99-1.18,2.23-2.1,3.71-2.78,1.48-.67,3.18-1.01,5.1-1.01s3.51.3,4.98.91c1.46.61,2.69,1.45,3.66,2.53.98,1.08,1.73,2.34,2.25,3.79.52,1.45.78,3,.78,4.65,0,.67-.03,1.39-.1,2.15-.07.76-.17,1.42-.3,2h-16.01c.4,1.95,1.19,3.41,2.35,4.37,1.16.96,2.65,1.44,4.47,1.44,1.14,0,2.3-.18,3.46-.53,1.16-.35,2.33-.87,3.51-1.54l2.17,4.9ZM499.97,372.86c-.07-1.79-.49-3.2-1.26-4.24-.77-1.04-1.95-1.57-3.54-1.57s-2.86.55-3.64,1.64c-.77,1.09-1.25,2.48-1.41,4.17h9.85Z"/>
      <path class="cls-1" d="M528.66,388.42c-.27-1.14-.44-2.39-.51-3.74-.07-1.35-.1-2.51-.1-3.49v-8.99c0-.71-.06-1.37-.18-2-.12-.62-.31-1.16-.58-1.62-.27-.46-.65-.82-1.14-1.09-.49-.27-1.09-.4-1.79-.4-.88,0-1.79.19-2.73.56-.94.37-1.89.89-2.83,1.57v19.2h-7.12v-26.12l5.71-.61.66,3.74c1.28-1.08,2.66-2,4.14-2.78,1.48-.77,3.11-1.16,4.9-1.16,1.41,0,2.63.26,3.64.78,1.01.52,1.84,1.25,2.5,2.17.66.93,1.14,2.01,1.46,3.26.32,1.25.48,2.59.48,4.04v9.45c0,.98.03,2.14.1,3.49.07,1.35.23,2.59.5,3.74h-7.12Z"/>
      <path class="cls-1" d="M557.25,387.66c-1.92.84-3.87,1.26-5.86,1.26-3.06,0-5.31-.88-6.74-2.65-1.43-1.77-2.15-4.34-2.15-7.7v-11.21h-4.85v-5.35h4.85v-6.26l7.17-.61v6.87h6.52v5.35h-6.52v10.2c0,1.75.23,3.15.68,4.19.45,1.04,1.37,1.57,2.75,1.57.88,0,1.83-.18,2.88-.56l1.26,4.9Z"/>
      <path class="cls-1" d="M594.88,398.17c-1.75.81-3.49,1.42-5.2,1.84-1.72.42-3.64.63-5.76.63-3.44,0-6.62-.55-9.55-1.64-2.93-1.09-5.46-2.66-7.6-4.7-2.14-2.04-3.81-4.49-5.03-7.35s-1.82-6.06-1.82-9.6.61-6.8,1.84-9.8c1.23-3,2.95-5.57,5.15-7.73,2.21-2.15,4.84-3.84,7.91-5.05,3.06-1.21,6.43-1.82,10.1-1.82,3.44,0,6.56.53,9.37,1.59,2.81,1.06,5.22,2.53,7.22,4.39,2,1.87,3.54,4.08,4.62,6.62,1.08,2.54,1.62,5.28,1.62,8.21,0,2.09-.28,4.02-.83,5.81-.56,1.79-1.35,3.33-2.37,4.65-1.03,1.31-2.27,2.34-3.74,3.08-1.46.74-3.11,1.11-4.92,1.11-1.48,0-2.84-.26-4.07-.78-1.23-.52-2.23-1.34-3.01-2.45-1.25,1.18-2.49,2.01-3.74,2.5-1.25.49-2.51.73-3.79.73-1.38,0-2.64-.27-3.76-.81-1.13-.54-2.08-1.28-2.85-2.22-.77-.94-1.37-2.07-1.79-3.38-.42-1.31-.63-2.73-.63-4.24,0-1.62.23-3.16.71-4.62.47-1.46,1.15-2.75,2.05-3.86.89-1.11,1.96-2,3.21-2.65,1.25-.66,2.66-.98,4.24-.98,1.35,0,2.54.22,3.59.66,1.04.44,1.95.99,2.73,1.67l.81-1.82,5.1-.3-.61,14.14c0,.91.19,1.66.58,2.25.39.59,1,.88,1.84.88.71,0,1.34-.22,1.89-.66.56-.44,1.03-1.05,1.41-1.84.39-.79.68-1.72.88-2.78.2-1.06.3-2.21.3-3.46,0-2.46-.39-4.66-1.16-6.62-.77-1.95-1.87-3.61-3.28-4.98-1.41-1.36-3.12-2.41-5.1-3.13-1.99-.72-4.19-1.09-6.62-1.09-2.76,0-5.26.46-7.5,1.39-2.24.93-4.15,2.22-5.73,3.89-1.58,1.67-2.8,3.65-3.66,5.94-.86,2.29-1.29,4.82-1.29,7.58s.45,5.35,1.34,7.55c.89,2.21,2.1,4.06,3.61,5.56,1.52,1.5,3.29,2.63,5.33,3.41,2.04.77,4.2,1.16,6.49,1.16,1.41,0,2.91-.16,4.5-.48,1.58-.32,3.3-.85,5.15-1.59l1.82,5.2ZM587.61,371.8c-1.21-.74-2.41-1.11-3.59-1.11-1.65,0-2.9.59-3.76,1.77-.86,1.18-1.29,2.81-1.29,4.9,0,1.95.38,3.38,1.14,4.29.76.91,1.81,1.36,3.16,1.36.71,0,1.42-.13,2.15-.38.72-.25,1.41-.66,2.05-1.24-.1-.5-.15-1.03-.15-1.57l.3-8.03Z"/>
      <path class="cls-1" d="M629.49,386.09c-1.04.77-2.21,1.42-3.51,1.94-1.3.52-2.65.78-4.07.78-1.65,0-3.12-.37-4.42-1.11-1.3-.74-2.38-1.73-3.26-2.96-.88-1.23-1.55-2.64-2.02-4.24-.47-1.6-.71-3.27-.71-5.03,0-1.89.27-3.68.81-5.38.54-1.7,1.31-3.19,2.32-4.47,1.01-1.28,2.22-2.29,3.64-3.03,1.41-.74,3.01-1.11,4.8-1.11,1.45,0,2.77.24,3.97.71,1.19.47,2.28,1.15,3.26,2.02l.45-1.92,5.86-.61v25.66c0,4.41-1.19,7.73-3.56,9.95s-5.58,3.33-9.62,3.33c-3.57,0-6.8-.88-9.7-2.63l2.02-4.95c2.36,1.31,4.7,1.97,7.02,1.97,4.48,0,6.72-2.53,6.72-7.58v-1.36ZM629.49,368.26c-.77-.37-1.57-.66-2.4-.86-.83-.2-1.59-.3-2.3-.3-2.05,0-3.59.77-4.6,2.32-1.01,1.55-1.52,3.54-1.52,5.96,0,2.59.51,4.55,1.54,5.86,1.03,1.31,2.4,1.97,4.12,1.97.81,0,1.67-.13,2.58-.4.91-.27,1.77-.59,2.58-.96v-13.59Z"/>
      <path class="cls-1" d="M674.59,388.42c-.27-1.14-.44-2.39-.5-3.74-.07-1.35-.1-2.51-.1-3.49v-8.99c0-1.52-.25-2.74-.76-3.69-.5-.94-1.46-1.41-2.88-1.41-.77,0-1.6.15-2.48.45-.88.3-1.73.74-2.58,1.31.07.47.13.94.18,1.41.05.47.08.96.08,1.47v9.45c0,.98.03,2.14.1,3.49.07,1.35.23,2.59.5,3.74h-7.12c-.27-1.14-.44-2.39-.5-3.74-.07-1.35-.1-2.51-.1-3.49v-8.99c0-1.45-.25-2.66-.76-3.64-.5-.98-1.45-1.46-2.83-1.46-.77,0-1.57.15-2.4.45-.83.3-1.64.72-2.45,1.26v19.6h-7.12v-26.12l5.71-.61.61,3.43c1.14-.98,2.41-1.83,3.79-2.55,1.38-.72,2.91-1.09,4.6-1.09s2.96.35,4.04,1.06c1.08.71,1.94,1.65,2.58,2.83,1.28-1.14,2.65-2.08,4.12-2.8,1.46-.72,3.04-1.09,4.72-1.09,1.41,0,2.63.27,3.64.81,1.01.54,1.84,1.27,2.5,2.2.66.93,1.14,2.01,1.46,3.26.32,1.25.48,2.58.48,3.99v9.45c0,.98.03,2.14.1,3.49.07,1.35.23,2.59.5,3.74h-7.12Z"/>
      <path class="cls-1" d="M701.87,388.42c-.17-.57-.34-1.55-.51-2.93-1.11.98-2.35,1.75-3.71,2.32-1.36.57-2.77.86-4.22.86-1.21,0-2.3-.2-3.26-.61-.96-.4-1.78-.97-2.45-1.69-.67-.72-1.19-1.58-1.54-2.58-.35-.99-.53-2.06-.53-3.21,0-2.56.88-4.57,2.65-6.04s4.34-2.2,7.7-2.2c.74,0,1.52.03,2.35.1.82.07,1.64.17,2.45.3v-.45c0-1.62-.5-2.89-1.49-3.81-.99-.93-2.37-1.39-4.12-1.39-1.08,0-2.16.18-3.23.53-1.08.35-2.16.82-3.23,1.39l-2.02-4.95c1.35-.84,2.88-1.48,4.6-1.92,1.72-.44,3.43-.66,5.15-.66,3.57,0,6.36.94,8.36,2.83,2,1.89,3.01,4.66,3.01,8.33v8.54c0,.98.03,2.14.1,3.49.07,1.35.23,2.59.5,3.74h-6.57ZM700.86,376.8c-.4-.07-.87-.12-1.39-.15-.52-.03-.97-.05-1.34-.05-1.95,0-3.39.33-4.32.99-.93.66-1.39,1.59-1.39,2.8,0,1.08.31,1.89.93,2.42.62.54,1.44.81,2.45.81.88,0,1.75-.18,2.63-.53.88-.35,1.68-.78,2.42-1.29v-5Z"/>
      <path class="cls-1" d="M721.72,353.41c0,1.15-.36,2.07-1.09,2.78-.72.71-1.76,1.06-3.11,1.06s-2.38-.35-3.11-1.06c-.72-.71-1.09-1.63-1.09-2.78s.36-2.01,1.09-2.7c.72-.69,1.76-1.04,3.11-1.04s2.38.35,3.11,1.04c.72.69,1.09,1.59,1.09,2.7ZM713.99,388.42v-26.12l7.12-.61v26.72h-7.12Z"/>
      <path class="cls-1" d="M727.58,388.42v-37.43l7.12-.61v38.04h-7.12Z"/>
      <path class="cls-1" d="M749.35,384.88c0,1.28-.43,2.27-1.29,2.98s-1.93,1.06-3.21,1.06-2.35-.35-3.21-1.06c-.86-.71-1.29-1.7-1.29-2.98s.43-2.27,1.29-2.98c.86-.71,1.93-1.06,3.21-1.06s2.35.35,3.21,1.06c.86.71,1.29,1.7,1.29,2.98Z"/>
      <path class="cls-1" d="M776.13,386.3c-1.31.88-2.76,1.53-4.34,1.97s-3.22.66-4.9.66c-1.92,0-3.69-.3-5.3-.91s-3.02-1.49-4.22-2.65c-1.2-1.16-2.12-2.58-2.78-4.27-.66-1.68-.99-3.62-.99-5.81s.32-4.04.96-5.76c.64-1.72,1.54-3.17,2.7-4.34,1.16-1.18,2.55-2.09,4.17-2.73,1.62-.64,3.42-.96,5.4-.96,1.82,0,3.46.25,4.92.73,1.47.49,2.79,1.1,3.97,1.84l-2.02,5c-1.18-.67-2.27-1.17-3.28-1.49-1.01-.32-2-.48-2.98-.48-2.12,0-3.76.72-4.92,2.15-1.16,1.43-1.74,3.43-1.74,5.99s.56,4.42,1.69,5.88c1.13,1.46,2.82,2.2,5.08,2.2,1.08,0,2.16-.17,3.26-.51,1.09-.34,2.18-.82,3.26-1.46l2.07,4.95Z"/>
      <path class="cls-1" d="M791.53,388.92c-2.09,0-3.96-.34-5.61-1.01-1.65-.67-3.05-1.62-4.19-2.83-1.15-1.21-2.01-2.65-2.6-4.32s-.88-3.51-.88-5.53.29-3.87.88-5.56c.59-1.68,1.46-3.13,2.6-4.34,1.14-1.21,2.54-2.15,4.19-2.83s3.52-1.01,5.61-1.01,3.96.34,5.61,1.01c1.65.67,3.04,1.62,4.17,2.83,1.13,1.21,1.99,2.66,2.58,4.34.59,1.68.88,3.54.88,5.56s-.29,3.86-.88,5.53c-.59,1.67-1.45,3.11-2.58,4.32-1.13,1.21-2.52,2.16-4.17,2.83-1.65.67-3.52,1.01-5.61,1.01ZM791.53,383.32c2.12,0,3.66-.74,4.62-2.22.96-1.48,1.44-3.44,1.44-5.86s-.48-4.39-1.44-5.88-2.5-2.25-4.62-2.25-3.67.75-4.65,2.25-1.46,3.46-1.46,5.88.49,4.38,1.46,5.86c.98,1.48,2.53,2.22,4.65,2.22Z"/>
      <path class="cls-1" d="M841.44,388.42c-.27-1.14-.44-2.39-.51-3.74-.07-1.35-.1-2.51-.1-3.49v-8.99c0-1.52-.25-2.74-.76-3.69-.5-.94-1.46-1.41-2.88-1.41-.78,0-1.6.15-2.48.45-.88.3-1.73.74-2.58,1.31.07.47.13.94.18,1.41.05.47.08.96.08,1.47v9.45c0,.98.03,2.14.1,3.49.07,1.35.24,2.59.51,3.74h-7.12c-.27-1.14-.44-2.39-.5-3.74-.07-1.35-.1-2.51-.1-3.49v-8.99c0-1.45-.25-2.66-.76-3.64-.51-.98-1.45-1.46-2.83-1.46-.78,0-1.57.15-2.4.45-.83.3-1.64.72-2.45,1.26v19.6h-7.12v-26.12l5.71-.61.61,3.43c1.14-.98,2.41-1.83,3.79-2.55,1.38-.72,2.91-1.09,4.6-1.09s2.96.35,4.04,1.06c1.08.71,1.94,1.65,2.58,2.83,1.28-1.14,2.65-2.08,4.12-2.8,1.46-.72,3.04-1.09,4.72-1.09,1.42,0,2.63.27,3.64.81,1.01.54,1.84,1.27,2.5,2.2.66.93,1.14,2.01,1.46,3.26.32,1.25.48,2.58.48,3.99v9.45c0,.98.03,2.14.1,3.49.07,1.35.24,2.59.5,3.74h-7.12Z"/>
    </g>
  </g>
</svg>