<?xml version="1.0" encoding="UTF-8"?>
<svg id="Layer_2" xmlns="http://www.w3.org/2000/svg" viewBox="0 0 706.22 707.94">
  <defs>
    <style>
      .cls-1, .cls-2, .cls-3 {
        fill: #fff;
      }

      .cls-2 {
        font-size: 49.85px;
      }

      .cls-2, .cls-3 {
        font-family: AngsanaNew, 'Angsana New';
      }

      .cls-3 {
        font-size: 120.42px;
      }
    </style>
  </defs>
  <g id="Layer_1-2" data-name="Layer_1">
    <g>
      <g>
        <path class="cls-1" d="M281.69,457.52c15.8-23.18,20.67-53.17,15.64-81.18l91.93-129.55,50.6,39.35,58.58-94.72v186.67s-.27,4.1-1.43,10.34c-5.17,27.92-27.94,98.95-122.31,40.53l-41.25,53.62s79.74,76.99,173.24,22c0,0,1.9-.63,5.07-2.25,13.96-7.12,52.45-33.31,61-108.38.56-5.06,1-10.34,1.29-15.85v-86.55l-1.35-102.65-.03-2.32-.23-18.31-.03-2.32-.18-13.5-.11-8.8c-2.49-17.45-18.23-30.89-37.29-30.89h-35.2l-1.21,1.97-69.28,111.99-48.4-37.64-101.47,142.97c-3.04-4.36-6.43-8.48-10.14-12.27-8.88-9.07-19.59-15.61-30.89-21.28-24.42-12.25-50.5-20.69-76.55-28.71-23.46-7.22-52.69-11.43-68.26-32.41-7.86-10.6-7.98-24.98-2.57-36.73,8.69-18.9,30.21-26.96,49.75-27.99,19.54-1.04,39.02,3.18,57.15,10.27,4.01,1.57,49.96,24.54,48.36,26.78,0,0,39.16-55.65,39.19-55.68,3.4-4.84-40.7-27.01-44.76-29.09-28.04-14.38-58.59-21.48-90.26-20.01-43.45,2.01-92.5,17.88-118.58,54.67-18.18,25.65-22.27,57.41-17.26,87.93,0,0,.69,54.31,84.56,80.43,29.88,9.49,61.24,17.76,89.87,30.6,14.52,6.51,27.89,14.78,32.79,31,11.16,36.92-23.95,53.31-53.92,56.64,0,0-66,4.12-125.12-52.25,0,0-42.61,56.36-42.62,56.37-1.08,1.43,27.93,22.5,29.69,23.69,23.05,15.64,48.84,27.9,76.23,33.54,62.09,12.79,136.97,6.89,175.74-49.99Z"/>
        <path class="cls-1" d="M669.61,112.74c-18.45,0-33.69,13.45-36.09,30.89l-.11,8.8-.21,16.62-.27,21.13-.4,31.54-.44,35.06-3.09,245.54h77.23V112.74h-36.61Z"/>
        <circle class="cls-1" cx="602.92" cy="52.25" r="52.25"/>
      </g>
      <text class="cls-2" transform="translate(197.23 687.5)"><tspan x="0" y="0">The Big Data For Your Win</tspan></text>
      <text class="cls-3" transform="translate(153.97 638.29)"><tspan x="0" y="0">INVESMENT</tspan></text>
    </g>
  </g>
</svg>